<?xml version="1.0" encoding="UTF-8"?>
<svg version="1.1" xmlns="http://www.w3.org/2000/svg" width="1254" height="1254">
<path d="M0 0 C413.82 0 827.64 0 1254 0 C1254 413.82 1254 827.64 1254 1254 C840.18 1254 426.36 1254 0 1254 C0 840.18 0 426.36 0 0 Z " fill="#FEFEFE" transform="translate(0,0)"/>
<path d="M0 0 C0.87467422 -0.00997513 1.74934845 -0.01995026 2.65052795 -0.03022766 C4.09363091 -0.03122467 4.09363091 -0.03122467 5.56588745 -0.03224182 C6.57745407 -0.04056534 7.58902069 -0.04888885 8.63124084 -0.0574646 C11.99084273 -0.08164892 15.35025059 -0.09034876 18.70993042 -0.09693909 C21.04203349 -0.10590181 23.37413595 -0.11502358 25.70623779 -0.1242981 C30.60396727 -0.14081552 35.50162819 -0.14849273 40.39938354 -0.15138245 C46.66746271 -0.15675685 52.93489453 -0.1943869 59.20279121 -0.24012661 C64.02417328 -0.26991653 68.84540021 -0.2771065 73.6668663 -0.2781086 C75.97688626 -0.28231009 78.28690672 -0.29474142 80.59683609 -0.31562614 C83.83569583 -0.34256786 87.07306554 -0.33770482 90.3119812 -0.32521057 C91.26190445 -0.34004486 92.2118277 -0.35487915 93.1905365 -0.37016296 C99.57883806 -0.30020607 103.90511049 1.11751523 108.82711792 5.27415466 C111.08810425 8.13597107 111.08810425 8.13597107 112.84664917 11.25071716 C113.17252518 11.81489349 113.49840118 12.37906982 113.83415222 12.96034241 C114.51214018 14.13871534 115.18185262 15.32188756 115.84329224 16.5096283 C117.40756506 19.31520726 119.03762218 22.08273275 120.65133667 24.86009216 C121.94145708 27.12176842 123.22914931 29.38483122 124.51461792 31.64915466 C125.21497999 32.87906279 125.91550398 34.10887873 126.61618042 35.33860779 C131.39567159 43.73220135 136.14981794 52.14013862 140.89450073 60.55345154 C145.49231067 68.70039863 150.13883282 76.81921473 154.78848267 84.93663025 C159.56069055 93.27097385 164.27776683 101.63444583 168.95211792 110.02415466 C173.54606818 118.26835188 178.23851481 126.44671243 183.01461792 134.58665466 C184.72943051 137.5249936 186.44214333 140.46453872 188.15328979 143.40501404 C189.27229581 145.32312353 190.39602653 147.23848421 191.52438354 149.15110779 C193.12302013 151.86935355 194.69651908 154.60070867 196.26461792 157.33665466 C196.74374634 158.1394989 197.22287476 158.94234314 197.71652222 159.76951599 C199.92880914 163.68369049 200.85037541 165.66409275 200.67477417 170.27024841 C199.82711792 173.27415466 199.82711792 173.27415466 198.82711792 174.27415466 C197.44949812 174.3781893 196.06662609 174.41375987 194.68510437 174.42132568 C193.79208618 174.42848099 192.89906799 174.43563629 191.97898865 174.44300842 C190.99148117 174.44569733 190.00397369 174.44838623 188.98654175 174.45115662 C187.95240143 174.45772781 186.91826111 174.46429901 185.8527832 174.47106934 C182.41323788 174.49086052 178.97373637 174.5024789 175.53414917 174.51243591 C174.36207098 174.51651144 173.18999279 174.52058697 171.98239708 174.524786 C165.77691192 174.54567326 159.57144903 174.55996249 153.36593628 174.56932068 C146.95089979 174.58038039 140.53621063 174.61476805 134.12129688 174.65449238 C129.19449717 174.68062556 124.26778052 174.68900969 119.34091759 174.69260216 C116.97622016 174.69747796 114.61152668 174.70912005 112.24689674 174.72764015 C108.93587324 174.75195679 105.625752 174.75107961 102.31466675 174.74412537 C100.84858727 174.76334045 100.84858727 174.76334045 99.35289001 174.78294373 C93.658044 174.73935072 90.32422459 174.120833 85.82711792 170.27415466 C82.99148845 167.12683062 80.87355752 163.82633907 78.83102417 160.12571716 C78.27922485 159.13233337 77.72742554 158.13894958 77.15890503 157.11546326 C76.57504028 156.05408142 75.99117554 154.99269958 75.38961792 153.89915466 C74.13224625 151.63328499 72.87442396 149.36766531 71.61618042 147.10227966 C70.98228394 145.95823669 70.34838745 144.81419373 69.69528198 143.63548279 C66.91078908 138.62543335 64.08977585 133.63635277 61.26461792 128.64915466 C60.18909709 126.748113 59.11357625 124.84707133 58.03805542 122.94602966 C56.96780807 121.05536778 55.89749566 119.16474273 54.82711792 117.27415466 C47.5385003 104.40040643 40.27295275 91.51444067 33.05343628 78.60179138 C29.73021213 72.66125821 26.39060952 66.73050408 23.03219604 60.80979919 C16.70410101 49.65350063 10.47891816 38.44307114 4.29440308 27.20677185 C3.97077286 26.61887375 3.64714264 26.03097565 3.31370544 25.42526245 C2.38396781 23.73476424 1.45622243 22.04317082 0.52853394 20.35154724 C-0.54560316 18.40872933 -1.63207315 16.47263275 -2.73562622 14.54637146 C-3.19058472 13.75142273 -3.64554321 12.956474 -4.11428833 12.13743591 C-4.50559937 11.46494812 -4.8969104 10.79246033 -5.30007935 10.09959412 C-6.59707955 7.386959 -6.67343719 5.20597742 -6.17288208 2.27415466 C-3.77893124 -0.11979618 -3.26218971 0.01990735 0 0 Z " fill="#187657" transform="translate(66.17288208007813,489.72584533691406)"/>
<path d="M0 0 C0.8996347 -0.00861557 1.79926941 -0.01723114 2.72616577 -0.02610779 C5.69997938 -0.04881023 8.67285385 -0.04202075 11.64672852 -0.03295898 C13.71411927 -0.0381929 15.78150763 -0.04446852 17.84889221 -0.05174255 C22.18241611 -0.06215485 26.51561182 -0.05757363 30.84912109 -0.04296875 C36.40234549 -0.02578523 41.95453483 -0.04926691 47.5076437 -0.08445835 C51.77735755 -0.10642075 56.04682333 -0.10499355 60.316576 -0.09669304 C62.36390378 -0.09587278 64.41124964 -0.10275033 66.4585247 -0.11746407 C69.32195475 -0.13488711 72.18351995 -0.12038586 75.046875 -0.09765625 C75.89223312 -0.10934845 76.73759125 -0.12104065 77.60856628 -0.13308716 C81.67582446 -0.06740781 83.64304303 0.23938624 87.11277771 2.53175354 C89.67669091 6.42779965 89.7917874 9.67577875 89.73510742 14.19165039 C89.74386902 15.05241684 89.75263062 15.91318329 89.76165771 16.80003357 C89.78362289 19.63877108 89.76910951 22.47594456 89.75219727 25.31469727 C89.75556623 27.29097797 89.76041953 29.26725665 89.76669312 31.24353027 C89.77406053 35.38285066 89.76336302 39.52163111 89.73999023 43.66088867 C89.71150267 48.96415433 89.72790732 54.26615483 89.75785255 59.56937408 C89.77592897 63.64953121 89.77016589 67.72938886 89.75721359 71.80955505 C89.75388054 73.76476695 89.75796311 75.72000612 89.76961136 77.67518616 C89.78232573 80.40927027 89.76293566 83.141312 89.73510742 85.87524414 C89.74522858 86.68162827 89.75534973 87.48801239 89.76577759 88.3188324 C89.69408358 92.12499048 89.21731781 94.33787564 87.10604858 97.53414917 C83.01145346 100.24672373 79.9682902 100.23880748 75.15454102 100.18041992 C74.26451385 100.18918152 73.37448669 100.19794312 72.45748901 100.20697021 C69.52137207 100.22894075 66.58676648 100.21441981 63.65063477 100.19750977 C61.60709342 100.20087857 59.56355402 100.20573173 57.52001953 100.21200562 C53.23947045 100.21937377 48.95944343 100.20867302 44.67895508 100.18530273 C39.19410141 100.15681527 33.71047102 100.17321951 28.22566223 100.20316505 C24.00653885 100.22123939 19.78770514 100.21547931 15.568573 100.20252609 C13.54637507 100.19919247 11.52415078 100.20327761 9.50198364 100.21492386 C6.67452416 100.22763462 3.84904091 100.20825252 1.02172852 100.18041992 C-0.22992599 100.19560165 -0.22992599 100.19560165 -1.50686646 100.21109009 C-5.54183492 100.13756565 -7.48653355 99.81417903 -10.93077087 97.5408783 C-13.59975045 93.48919244 -13.61098858 90.52228725 -13.54296875 85.76757812 C-13.55012405 84.89545181 -13.55727936 84.0233255 -13.56465149 83.12477112 C-13.58152823 80.24874114 -13.56214377 77.37427204 -13.54077148 74.49829102 C-13.5416002 72.49719616 -13.54405969 70.49610137 -13.54808044 68.49501038 C-13.55093765 64.30440747 -13.53624329 60.11433929 -13.50878906 55.92382812 C-13.47468456 50.55109596 -13.48073264 45.17931854 -13.49945164 39.80654049 C-13.51001664 35.67582737 -13.50108869 31.54533667 -13.48606682 27.41464424 C-13.48088236 25.43349429 -13.48136999 23.45232114 -13.48761177 21.47117424 C-13.49305877 18.70358129 -13.47270652 15.9373587 -13.4453125 13.16992188 C-13.45183838 12.35059174 -13.45836426 11.5312616 -13.46508789 10.68710327 C-13.40856283 7.33078501 -13.15312868 4.94304703 -11.43551636 2.02700806 C-7.66779635 -0.20282428 -4.30668527 -0.03316674 0 0 Z " fill="#000000" transform="translate(62.911865234375,664.466552734375)"/>
<path d="M0 0 C13.096875 -0.0825 26.19375 -0.165 39.6875 -0.25 C43.79791748 -0.28641602 47.90833496 -0.32283203 52.14331055 -0.36035156 C57.22619629 -0.37841797 57.22619629 -0.37841797 59.61799622 -0.3817749 C61.26163588 -0.38785179 62.90525956 -0.40178156 64.54878235 -0.42230225 C79.00683295 -0.59354105 93.50807882 0.75701582 104.9296875 10.67578125 C111.73547852 17.7298522 115.2263197 26.23772012 115.625 36 C115.24168146 45.13912098 112.47345773 52.78010042 106.1875 59.5 C100.27300111 64.85966785 93.41721039 67.35099629 86 70 C86.65226563 70.17015625 87.30453125 70.3403125 87.9765625 70.515625 C95.81065523 72.6879103 101.14763802 75.30767749 105.921875 82.0234375 C108.7220688 87.15712614 109.24163687 91.79539139 109.1953125 97.5859375 C109.1924826 98.28772125 109.18965271 98.989505 109.18673706 99.71255493 C109.17562512 101.93355028 109.15053834 104.15412845 109.125 106.375 C109.11495854 107.88931705 109.10583473 109.40364049 109.09765625 110.91796875 C109.07571554 114.61211258 109.04124875 118.30601551 109 122 C105.04 122 101.08 122 97 122 C96.94392578 119.12474609 96.94392578 119.12474609 96.88671875 116.19140625 C96.82103273 113.64841879 96.75458631 111.1054509 96.6875 108.5625 C96.66494141 107.30244141 96.64238281 106.04238281 96.61914062 104.74414062 C96.31273888 92.01072226 96.31273888 92.01072226 89.8125 81.5625 C82.59575066 75.39929071 71.67035925 76.65790471 62.78125 76.5859375 C61.31293684 76.56720009 59.84463416 76.54762481 58.37634277 76.5272522 C54.53615531 76.47619634 50.69593304 76.43642971 46.85559082 76.39910889 C42.23479128 76.35181615 37.61416085 76.29033345 32.99349976 76.23126221 C25.99573578 76.14337402 18.99799886 76.07337858 12 76 C12 91.18 12 106.36 12 122 C8.04 122 4.08 122 0 122 C0 81.74 0 41.48 0 0 Z " fill="#030303" transform="translate(914,536)"/>
<path d="M0 0 C11.41970815 9.64560568 19.16556246 23.34066433 20.56274414 38.32861328 C21.06967165 49.11751977 20.58912474 58.85943554 16.33984375 68.9375 C15.98921875 69.81535156 15.63859375 70.69320312 15.27734375 71.59765625 C12.21152601 78.48510096 7.63060015 83.63780651 2.33984375 88.9375 C1.70046875 89.58847656 1.06109375 90.23945312 0.40234375 90.91015625 C-11.25174389 101.95726015 -29.74491119 107.97554599 -45.57421875 108.2109375 C-46.33758041 108.22346558 -47.10094208 108.23599365 -47.88743591 108.24890137 C-75.03958616 108.6084846 -97.36076325 106.22849857 -118.0703125 86.66015625 C-129.6237019 74.75958653 -133.57481279 59.65061097 -134.09765625 43.375 C-133.71371638 28.04940021 -127.53457854 14.25919415 -117.08203125 3.09765625 C-86.07311221 -24.56029895 -32.40360425 -25.12349933 0 0 Z M-110.66015625 14.9375 C-120.03718486 26.93256763 -122.10046858 39.0753395 -120.66015625 53.9375 C-118.65044837 64.7921934 -113.85535843 73.54182974 -105.66015625 80.9375 C-105.20640625 81.39511719 -104.75265625 81.85273437 -104.28515625 82.32421875 C-91.23011499 94.75914555 -74.11850831 97.11508735 -56.91015625 97.125 C-55.80671875 97.13724609 -54.70328125 97.14949219 -53.56640625 97.16210938 C-43.10107851 97.18053425 -33.12404279 96.21830514 -23.53515625 91.8125 C-22.858479 91.50683105 -22.18180176 91.20116211 -21.48461914 90.88623047 C-8.35343702 84.70040228 0.94743781 74.39623219 6.33984375 60.9375 C7.65109254 56.25329049 7.52356642 51.5149284 7.52734375 46.6875 C7.53958984 45.87925781 7.55183594 45.07101562 7.56445312 44.23828125 C7.59713145 30.62231396 3.07572267 21.16930297 -6.21875 11.29296875 C-21.6480039 -3.59317541 -42.8344979 -6.75927945 -63.4609375 -6.40625 C-81.91709107 -5.5681276 -98.05924247 1.37782104 -110.66015625 14.9375 Z " fill="#050505" transform="translate(833.66015625,551.0625)"/>
<path d="M0 0 C32.01 0 64.02 0 97 0 C97 3.96 97 7.92 97 12 C68.95 12 40.9 12 12 12 C12 26.19 12 40.38 12 55 C37.74 55 63.48 55 90 55 C90 58.96 90 62.92 90 67 C64.59 67 39.18 67 13 67 C13 81.52 13 96.04 13 111 C42.04 111 71.08 111 101 111 C101 114.96 101 118.92 101 123 C67.67 123 34.34 123 0 123 C0 82.41 0 41.82 0 0 Z " fill="#080808" transform="translate(546,535)"/>
<path d="M0 0 C15.49091347 -0.16043524 15.49091347 -0.16043524 22.1640625 -0.1953125 C26.69322782 -0.21909759 31.22206552 -0.2470382 35.75097656 -0.30175781 C39.40796209 -0.34565913 43.06459565 -0.36922881 46.72182465 -0.37950897 C48.10750611 -0.38682192 49.49317132 -0.40109905 50.87870026 -0.42292023 C62.03644095 -0.59143818 73.11233603 0.59361336 82 8 C87.55698336 13.61067402 90.27811407 18.22252449 90.375 26.3125 C90.1940797 34.7681436 87.99200787 39.3095923 82.0625 45.25 C72.36531393 53.14190375 60.74722162 53.58062916 48.73046875 53.390625 C47.31416127 53.38314054 45.89784326 53.37745808 44.48152161 53.37347412 C40.80050746 53.35839056 37.12015099 53.31926494 33.43939209 53.2746582 C28.99809099 53.22602599 24.55656676 53.20808884 20.11507416 53.18484497 C13.40959569 53.14639727 6.70555271 53.06962789 0 53 C0 35.51 0 18.02 0 0 Z " fill="#FCFCFC" transform="translate(926,547)"/>
<path d="M0 0 C5.61 0 11.22 0 17 0 C23.16381619 16.29750159 29.14687973 32.65109437 35 49.0625 C36.65118597 53.68400809 38.30388042 58.30497567 39.95703125 62.92578125 C40.37217484 64.08649139 40.78731842 65.24720154 41.21504211 66.44308472 C44.13001619 74.58682598 47.06450096 82.72334428 50.01171875 90.85546875 C50.4091629 91.95226456 50.80660706 93.04906036 51.21609497 94.17909241 C53.11494321 99.41723604 55.01625829 104.65447375 56.91992188 109.89086914 C57.59638674 111.75535928 58.27282085 113.61986057 58.94921875 115.484375 C59.26074387 116.33899826 59.57226898 117.19362152 59.89323425 118.07414246 C62 123.8868319 62 123.8868319 62 125 C56.39 125 50.78 125 45 125 C36.61919237 101.7117381 28.35365319 78.38628172 20.25 55 C19.85887024 53.87339966 19.46774048 52.74679932 19.0647583 51.58605957 C17.9418103 48.34986582 16.82192456 45.11262996 15.703125 41.875 C15.37245026 40.92236267 15.04177551 39.96972534 14.70108032 38.98822021 C12.64933046 33.03367882 10.76208805 27.04658501 9 21 C6.97937623 24.03093565 6.18099707 26.35519639 5.16674805 29.82910156 C3.06052965 36.86104847 0.72761961 43.79643466 -1.66796875 50.734375 C-2.11165071 52.02349298 -2.55519485 53.3126584 -2.99861145 54.60186768 C-3.92423116 57.29152606 -4.85132193 59.9806712 -5.77954102 62.66943359 C-6.9405963 66.0329372 -8.09823051 69.39760569 -9.25483513 72.76264191 C-13.79853165 85.97833433 -18.38500249 99.17703661 -23.11328125 112.328125 C-23.49244186 113.38328308 -23.87160248 114.43844116 -24.26225281 115.52557373 C-26.86976421 122.73952842 -26.86976421 122.73952842 -28 125 C-33.28 125 -38.56 125 -44 125 C-42.63839107 118.21311579 -40.68884552 111.8870959 -38.31640625 105.390625 C-37.94878174 104.36993423 -37.58115723 103.34924347 -37.20239258 102.29762268 C-35.99417967 98.94655438 -34.77837551 95.59829482 -33.5625 92.25 C-32.71616136 89.9073453 -31.87038564 87.56448717 -31.02514648 85.22143555 C-29.70671932 81.56740271 -28.38771216 77.91358646 -27.06654358 74.26054382 C-23.91122279 65.53574436 -20.7774014 56.80349381 -17.65625 48.06640625 C-17.22618149 46.86315704 -16.79611298 45.65990784 -16.35301208 44.42019653 C-14.68072675 39.74132459 -13.00850815 35.06243053 -11.33865356 30.38269043 C-10.18716478 27.1568382 -9.03329042 23.93184829 -7.87890625 20.70703125 C-7.5442334 19.76751114 -7.20956055 18.82799103 -6.86474609 17.86000061 C-4.70996688 11.84859457 -2.40143633 5.91736062 0 0 Z " fill="#040404" transform="translate(437,533)"/>
<path d="M0 0 C5.61 0 11.22 0 17 0 C20.31610649 7.81858024 23.40380174 15.65702591 26.23046875 23.6640625 C26.61891464 24.75557114 27.00736053 25.84707977 27.40757751 26.97166443 C28.67043582 30.52175871 29.92896961 34.07336942 31.1875 37.625 C32.74195204 41.9993972 34.29795458 46.37324197 35.85440826 50.74692726 C36.53762741 52.66710141 37.22044605 54.58741768 37.90325928 56.50773621 C40.99514929 65.19947121 44.11220032 73.88189779 47.24609375 82.55859375 C47.66092514 83.70755127 48.07575653 84.85650879 48.50315857 86.0402832 C50.09953637 90.46031021 51.6965014 94.88011728 53.29769897 99.29840088 C54.39051485 102.31412004 55.48061403 105.33080955 56.5703125 108.34765625 C57.05019875 109.66738686 57.05019875 109.66738686 57.53977966 111.01377869 C57.83618851 111.83560135 58.13259735 112.65742401 58.43798828 113.50415039 C58.69299103 114.20794327 58.94799377 114.91173615 59.21072388 115.63685608 C60.24238543 118.72571771 61.10534536 121.86870877 62 125 C56.39 125 50.78 125 45 125 C44.4016333 123.28530518 43.8032666 121.57061035 43.18676758 119.80395508 C41.15541737 113.98316314 39.12368458 108.16250484 37.09173584 102.34192181 C35.82644219 98.71738698 34.56131153 95.09279543 33.29653931 91.46807861 C26.01684268 70.60091515 26.01684268 70.60091515 18.6796875 49.75390625 C18.37087143 48.87960464 18.06205536 48.00530304 17.74388123 47.10450745 C16.36518287 43.20200607 14.9831964 39.30073366 13.5949707 35.40161133 C13.11917215 34.05684981 12.64349581 32.71204504 12.16796875 31.3671875 C11.76860107 30.24425293 11.3692334 29.12131836 10.95776367 27.96435547 C10.10069626 25.31166301 9.47573467 22.74352011 9 20 C6.28686298 26.98048828 3.95863892 34.08065199 1.61572266 41.19165039 C-4.46971325 59.64251554 -10.81662841 77.99986034 -17.21142578 96.34545898 C-17.91185632 98.35528074 -18.61221661 100.36512697 -19.3125 102.375 C-19.64305389 103.32363419 -19.97360779 104.27226837 -20.31417847 105.24964905 C-22.59818184 111.81569362 -24.82871438 118.3956729 -27 125 C-32.61 125 -38.22 125 -44 125 C-42.00952262 117.38891746 -39.70440219 110.00700695 -37.03515625 102.609375 C-36.64930359 101.52994125 -36.26345093 100.45050751 -35.86590576 99.33836365 C-34.60229885 95.8073897 -33.3325535 92.27865977 -32.0625 88.75 C-31.17840515 86.28434152 -30.29453825 83.8186013 -29.41088867 81.3527832 C-22.06596979 60.87275257 -14.63879848 40.42235627 -7.18579102 19.98144531 C-6.57263031 18.2997097 -6.57263031 18.2997097 -5.94708252 16.58399963 C-5.18245214 14.48758747 -4.4173816 12.39133577 -3.65179443 10.29527283 C-3.3152887 9.37307449 -2.97878296 8.45087616 -2.63208008 7.50073242 C-2.19295036 6.29848274 -2.19295036 6.29848274 -1.74494934 5.07194519 C-1.14003435 3.38948083 -0.56538557 1.69615672 0 0 Z " fill="#040404" transform="translate(1116,533)"/>
<path d="M0 0 C2 2 2 2 2.24839699 3.88987648 C2.24763755 4.66678428 2.24687811 5.44369208 2.24609566 6.24414253 C2.25007775 7.1398739 2.25405985 8.03560526 2.25816262 8.95848 C2.25233693 9.94873708 2.24651125 10.93899416 2.24050903 11.95925903 C2.24221788 13.00635729 2.24392673 14.05345554 2.24568737 15.13228405 C2.2489988 18.66394115 2.23795138 22.19541099 2.22705078 25.72705078 C2.22648702 28.24948116 2.22680253 30.77191186 2.22793579 33.29434204 C2.22839219 38.73679133 2.22269541 44.17917961 2.21146011 49.62161636 C2.1952262 57.49051413 2.18999928 65.35938869 2.18748413 73.22830139 C2.18310371 85.99417369 2.1697852 98.76002047 2.15087891 111.52587891 C2.13252908 123.9288724 2.11836819 136.33185896 2.10986328 148.73486328 C2.10933783 149.4990087 2.10881239 150.26315412 2.10827102 151.05045547 C2.105661 154.88383639 2.10313357 158.71721737 2.10064721 162.55059838 C2.0799039 194.36708431 2.04452057 226.18353819 2 258 C0.68 257.67 -0.64 257.34 -2 257 C-2.04558742 224.54855574 -2.08099981 192.09712068 -2.10213066 159.64565174 C-2.10463219 155.81780423 -2.10722082 151.98995679 -2.10986328 148.16210938 C-2.1103879 147.40002723 -2.11091252 146.63794508 -2.11145304 145.85276954 C-2.12016478 133.49981202 -2.13593897 121.14687305 -2.15430559 108.79392655 C-2.17298328 96.12647904 -2.1841122 83.45904127 -2.18817699 70.79158056 C-2.19092649 62.9698627 -2.19962245 55.14819725 -2.21583293 47.32649551 C-2.22761638 41.33718066 -2.22891676 35.34791125 -2.22621536 29.35858345 C-2.22676803 26.89543268 -2.23077843 24.43228002 -2.23841095 21.96914101 C-2.24828517 18.61978441 -2.24599654 15.27065648 -2.24050903 11.92129517 C-2.24633472 10.93492903 -2.2521604 9.9485629 -2.25816262 8.93230689 C-2.25418052 8.04005892 -2.25019842 7.14781095 -2.24609566 6.22852516 C-2.24723482 5.06772011 -2.24723482 5.06772011 -2.24839699 3.88346446 C-2 2 -2 2 0 0 Z " fill="#E4E2E2" transform="translate(311,498)"/>
<path d="M0 0 C4.00125 -0.0825 8.0025 -0.165 12.125 -0.25 C13.37555176 -0.28641602 14.62610352 -0.32283203 15.91455078 -0.36035156 C22.21486752 -0.42328368 26.29259657 -0.39792016 31 4 C32.6124054 7.22481079 32.60679502 10.51415624 32 14 C30.56130936 16.39446415 28.99797988 18.00202012 27 20 C27.49113281 20.37769531 27.98226562 20.75539063 28.48828125 21.14453125 C30.57897883 23.71063292 30.30262202 25.42570933 30.1875 28.6875 C30.16042969 29.68136719 30.13335938 30.67523437 30.10546875 31.69921875 C30.07066406 32.45847656 30.03585937 33.21773437 30 34 C29.01 34 28.02 34 27 34 C26.96261719 33.30132813 26.92523437 32.60265625 26.88671875 31.8828125 C26.82097656 30.97273437 26.75523437 30.06265625 26.6875 29.125 C26.62949219 28.22007812 26.57148437 27.31515625 26.51171875 26.3828125 C26.2117961 23.63778399 26.2117961 23.63778399 23 22 C20.77868577 21.6349209 20.77868577 21.6349209 18.33203125 21.5859375 C17.43935547 21.54726563 16.54667969 21.50859375 15.62695312 21.46875 C14.69818359 21.4378125 13.76941406 21.406875 12.8125 21.375 C11.87212891 21.33632813 10.93175781 21.29765625 9.96289062 21.2578125 C7.64224934 21.16357326 5.32115159 21.08069877 3 21 C3 25.29 3 29.58 3 34 C2.01 34 1.02 34 0 34 C0 22.78 0 11.56 0 0 Z " fill="#37EDB0" transform="translate(835,716)"/>
<path d="M0 0 C4.00125 -0.103125 8.0025 -0.20625 12.125 -0.3125 C13.37555176 -0.35802002 14.62610352 -0.40354004 15.91455078 -0.45043945 C25.10530113 -0.56519427 25.10530113 -0.56519427 28.7421875 2.39453125 C31.37160445 5.42882382 31.91266659 6.33876132 32.4375 10.3125 C31.97117122 14.24298539 31.84047573 14.59828469 29 16.9375 C27.515 17.9584375 27.515 17.9584375 26 19 C26.99 19.6496875 26.99 19.6496875 28 20.3125 C31.12953609 24.51781411 30.31484528 28.92749266 30 34 C29.01 34 28.02 34 27 34 C26.96261719 33.38511719 26.92523437 32.77023437 26.88671875 32.13671875 C26.78810547 30.92435547 26.78810547 30.92435547 26.6875 29.6875 C26.62949219 28.88699219 26.57148437 28.08648438 26.51171875 27.26171875 C25.89180705 24.52180369 25.18728982 23.72846876 23 22 C20.7856493 21.49844978 20.7856493 21.49844978 18.33203125 21.48828125 C17.43935547 21.45283203 16.54667969 21.41738281 15.62695312 21.38085938 C14.69818359 21.35830078 13.76941406 21.33574219 12.8125 21.3125 C11.87212891 21.27833984 10.93175781 21.24417969 9.96289062 21.20898438 C7.6423464 21.12652849 5.32119183 21.06158697 3 21 C3 25.29 3 29.58 3 34 C2.01 34 1.02 34 0 34 C0 22.78 0 11.56 0 0 Z " fill="#36EDB0" transform="translate(604,716)"/>
<path d="M0 0 C2.625 -0.1875 2.625 -0.1875 5 0 C6.89886062 3.45667915 8.7935154 6.91564713 10.6875 10.375 C11.21794922 11.34050781 11.74839844 12.30601562 12.29492188 13.30078125 C22 31.04380752 22 31.04380752 22 34 C20.25 33.9375 20.25 33.9375 18 33 C15.99159505 30.29950956 14 27.44873267 14 24 C6.41 24 -1.18 24 -9 24 C-9.66 25.98 -10.32 27.96 -11 30 C-11.63815344 31.34721283 -12.29325371 32.68747118 -13 34 C-14.32 34 -15.64 34 -17 34 C-15.53964956 30.19766069 -13.8509319 26.57298758 -12.03125 22.9296875 C-11.46019531 21.78628906 -10.88914062 20.64289062 -10.30078125 19.46484375 C-10.00510254 18.87558105 -9.70942383 18.28631836 -9.40478516 17.67919922 C-8.49992794 15.87485631 -7.5993759 14.06841019 -6.69921875 12.26171875 C-6.12816406 11.12089844 -5.55710937 9.98007812 -4.96875 8.8046875 C-4.18661133 7.24210205 -4.18661133 7.24210205 -3.38867188 5.64794922 C-2 3 -2 3 0 0 Z " fill="#3DEDB2" transform="translate(799,716)"/>
<path d="M0 0 C3.23006734 -0.1081697 6.45649754 -0.18739234 9.6875 -0.25 C11.05551758 -0.30027344 11.05551758 -0.30027344 12.45117188 -0.3515625 C16.76211466 -0.41426712 19.31019308 -0.39776555 23.109375 1.79296875 C25 4 25 4 25.5625 7.5625 C25 11 25 11 23.25 12.875 C19.79238738 14.60380631 16.73633434 15.12679041 12.890625 15.09765625 C12.13652344 15.09443359 11.38242187 15.09121094 10.60546875 15.08789062 C9.82816406 15.07951172 9.05085937 15.07113281 8.25 15.0625 C7.45722656 15.05798828 6.66445313 15.05347656 5.84765625 15.04882812 C3.89840492 15.03708565 1.94919262 15.01915146 0 15 C0 10.05 0 5.1 0 0 Z " fill="#F7FEFB" transform="translate(838,719)"/>
<path d="M0 0 C3.23006734 -0.1081697 6.45649754 -0.18739234 9.6875 -0.25 C11.05551758 -0.30027344 11.05551758 -0.30027344 12.45117188 -0.3515625 C16.78536362 -0.41460529 19.30546995 -0.40834179 23.109375 1.828125 C25 4 25 4 25.5625 7 C24.87950957 10.64261561 23.93929829 11.79552628 21 14 C18.24504799 14.87654318 15.77152991 15.11948129 12.890625 15.09765625 C12.13652344 15.09443359 11.38242187 15.09121094 10.60546875 15.08789062 C9.82816406 15.07951172 9.05085937 15.07113281 8.25 15.0625 C7.45722656 15.05798828 6.66445313 15.05347656 5.84765625 15.04882812 C3.89840492 15.03708565 1.94919262 15.01915146 0 15 C0 10.05 0 5.1 0 0 Z " fill="#F8FEFC" transform="translate(607,719)"/>
<path d="M0 0 C1.32 0 2.64 0 4 0 C4 4.95 4 9.9 4 15 C12.25 15 20.5 15 29 15 C29 10.05 29 5.1 29 0 C30.32 0 31.64 0 33 0 C33 11.22 33 22.44 33 34 C31.68 34 30.36 34 29 34 C29 28.72 29 23.44 29 18 C20.75 18 12.5 18 4 18 C4 23.28 4 28.56 4 34 C2.68 34 1.36 34 0 34 C0 22.78 0 11.56 0 0 Z " fill="#44EEB5" transform="translate(934,716)"/>
<path d="M0 0 C1.6796875 1.046875 1.6796875 1.046875 2.421875 3.15625 C2.50695312 3.78015625 2.59203125 4.4040625 2.6796875 5.046875 C1.69484375 4.72332031 0.71 4.39976562 -0.3046875 4.06640625 C-4.42541337 2.89305757 -8.30606492 2.71448579 -12.5703125 2.734375 C-13.62992188 2.71020508 -13.62992188 2.71020508 -14.7109375 2.68554688 C-17.6315193 2.68278117 -19.81976222 2.75170318 -22.3671875 4.25390625 C-23.71524059 6.789793 -23.11717137 8.36653151 -22.3203125 11.046875 C-21.09054687 11.36140625 -19.86078125 11.6759375 -18.59375 12 C-16.96078207 12.43170417 -15.32797808 12.86402878 -13.6953125 13.296875 C-12.88707031 13.50183594 -12.07882812 13.70679688 -11.24609375 13.91796875 C-5.88663152 15.35587325 -1.33368431 17.03350319 2.6796875 21.046875 C3.0546875 23.796875 3.0546875 23.796875 2.6796875 27.046875 C0.12944385 30.14852269 -1.49730497 31.77253916 -5.3203125 33.046875 C-7.95803827 33.16936119 -10.55777045 33.23199884 -13.1953125 33.234375 C-13.90300781 33.24662109 -14.61070312 33.25886719 -15.33984375 33.27148438 C-19.45464179 33.28297822 -22.62191788 32.8815688 -26.3203125 31.046875 C-26.3203125 29.726875 -26.3203125 28.406875 -26.3203125 27.046875 C-25.2478125 27.376875 -24.1753125 27.706875 -23.0703125 28.046875 C-17.1376129 29.5300499 -9.688198 30.49662704 -3.9609375 28.03125 C-3.41953125 27.70640625 -2.878125 27.3815625 -2.3203125 27.046875 C-2.3203125 25.396875 -2.3203125 23.746875 -2.3203125 22.046875 C-6.84746327 20.25309828 -11.28843119 18.75549704 -16.0078125 17.546875 C-21.44594913 16.10072232 -25.11267134 14.85833675 -28.3203125 10.046875 C-28.7578125 7.671875 -28.7578125 7.671875 -28.3203125 5.046875 C-20.89450301 -4.07626237 -10.38193949 -3.32517635 0 0 Z " fill="#47EEB6" transform="translate(723.3203125,716.953125)"/>
<path d="M0 0 C8.91 0 17.82 0 27 0 C27 0.99 27 1.98 27 3 C19.41 3 11.82 3 4 3 C4 6.96 4 10.92 4 15 C10.93 15 17.86 15 25 15 C25 15.99 25 16.98 25 18 C18.07 18 11.14 18 4 18 C4 22.29 4 26.58 4 31 C11.92 31 19.84 31 28 31 C28 31.99 28 32.98 28 34 C18.76 34 9.52 34 0 34 C0 22.78 0 11.56 0 0 Z " fill="#39EDB1" transform="translate(742,716)"/>
<path d="M0 0 C8.91 0 17.82 0 27 0 C27 0.99 27 1.98 27 3 C19.08 3 11.16 3 3 3 C3 6.96 3 10.92 3 15 C10.26 15 17.52 15 25 15 C25 15.99 25 16.98 25 18 C17.74 18 10.48 18 3 18 C3 22.29 3 26.58 3 31 C11.25 31 19.5 31 28 31 C28 31.99 28 32.98 28 34 C18.76 34 9.52 34 0 34 C0 22.78 0 11.56 0 0 Z " fill="#31EDAE" transform="translate(653,716)"/>
<path d="M0 0 C3.3125 1.75 3.3125 1.75 4.01953125 3.859375 C4.11621094 4.48328125 4.21289062 5.1071875 4.3125 5.75 C3.31347656 5.42773438 2.31445312 5.10546875 1.28515625 4.7734375 C-2.58305439 3.67379523 -6.21887465 3.41634488 -10.25 3.375 C-11.50941406 3.34664062 -12.76882813 3.31828125 -14.06640625 3.2890625 C-19.17749202 3.93966457 -22.29353703 6.07724443 -25.5625 10 C-27.05614601 13.65113469 -27.35937475 16.89993118 -26.6875 20.75 C-24.95934138 24.27278489 -23.34815221 26.241806 -20.25 28.625 C-12.95438863 30.92887727 -5.12481686 30.13889652 2.3125 28.75 C2.3125 29.74 2.3125 30.73 2.3125 31.75 C-4.91736473 34.53500182 -13.57363919 35.29585662 -21.078125 33.02734375 C-25.43515315 30.68780907 -28.49731022 27.13037956 -30.6875 22.75 C-31.1947965 17.19468752 -31.45010422 12.33169764 -29 7.25 C-21.01245672 -1.38518193 -11.31700561 -3.73828886 0 0 Z " fill="#43EEB5" transform="translate(913.6875,716.25)"/>
<path d="M0 0 C2.21161309 2.03708382 3.58544734 3.83957243 4.82421875 6.57421875 C5.10096436 7.17580811 5.37770996 7.77739746 5.6628418 8.3972168 C6.000979 9.15301025 6.33911621 9.90880371 6.6875 10.6875 C7.780625 13.100625 8.87375 15.51375 10 18 C3.73 18 -2.54 18 -9 18 C-6 12 -3 6 0 0 Z " fill="#F9FEFC" transform="translate(801,719)"/>
</svg>
