<?xml version="1.0" encoding="UTF-8"?>
<svg version="1.1" xmlns="http://www.w3.org/2000/svg" width="1254" height="1254">
<path d="M0 0 C413.82 0 827.64 0 1254 0 C1254 413.82 1254 827.64 1254 1254 C840.18 1254 426.36 1254 0 1254 C0 840.18 0 426.36 0 0 Z " fill="#FEFEFE" transform="translate(0,0)"/>
<path d="M0 0 C0.88390404 -0.00623996 1.76780807 -0.01247993 2.67849708 -0.01890898 C5.64650976 -0.0348901 8.61370699 -0.02221449 11.58172607 -0.00964355 C13.70724467 -0.01506255 15.83275951 -0.02218395 17.95826721 -0.03088379 C23.73740212 -0.04915088 29.51625202 -0.04203437 35.29539204 -0.02936745 C41.34150788 -0.01925208 47.38759904 -0.02862955 53.43371582 -0.03491211 C63.59230943 -0.042195 73.75078682 -0.03258626 83.90936279 -0.0135498 C95.64957555 0.00819667 107.3895102 0.0011862 119.12971616 -0.02085543 C129.20799425 -0.03901904 139.2861887 -0.0415623 149.36447787 -0.03110075 C155.38421862 -0.02486814 161.40382877 -0.02402346 167.4235611 -0.0372467 C173.08712428 -0.04881761 178.75032996 -0.04075636 184.4138546 -0.01766968 C186.49069056 -0.01238827 188.56755668 -0.01388661 190.64438057 -0.02272034 C193.4837831 -0.03368227 196.32204661 -0.01990388 199.16137695 0 C200.38883381 -0.01338433 200.38883381 -0.01338433 201.64108777 -0.02703905 C208.05924645 0.05997857 213.43555868 1.80919394 218.19989014 6.2442627 C218.60530029 6.83658691 219.01071045 7.42891113 219.42840576 8.03918457 C219.90664795 8.73785645 220.38489014 9.43652832 220.87762451 10.15637207 C223.6866678 14.69000225 226.28079675 19.32677273 228.83465576 24.00793457 C233.54240862 32.53114159 238.33116482 40.99278423 243.27215576 49.38293457 C248.91146917 58.97799532 254.3415195 68.67690812 259.71795654 78.42126465 C264.49164063 87.04975758 269.42121629 95.57711286 274.41448975 104.07995605 C278.65128353 111.30473466 282.75476234 118.59241642 286.79949951 125.92590332 C294.80356482 140.42951039 303.06134211 154.79328793 311.29437256 169.16766357 C316.06714119 177.50291831 320.78473393 185.86731951 325.45965576 194.25793457 C329.97230313 202.35520465 334.57604416 210.39072894 339.27215576 218.38293457 C344.91509698 227.98652801 350.35058139 237.69282552 355.73114014 247.44543457 C359.81065701 254.81978358 363.99517879 262.1215538 368.27215576 269.38293457 C373.84412242 278.84926098 379.19545256 288.42155754 384.47756958 298.05114746 C389.84773475 307.84110084 395.31398425 317.5708006 400.88153076 327.25012207 C401.29644775 327.9733667 401.71136475 328.69661133 402.13885498 329.44177246 C402.92709041 330.80372356 403.72540456 332.15989822 404.53436279 333.50964355 C406.85348474 337.4166928 407.97601377 339.91153548 407.33465576 344.50793457 C404.71124914 347.13134119 402.83998449 346.75510092 399.26786113 346.78474557 C397.98121652 346.78009977 397.98121652 346.78009977 396.6685791 346.77536011 C395.76047147 346.77989122 394.85236384 346.78442233 393.91673779 346.78909075 C390.8551466 346.80181289 387.79373151 346.80010936 384.7321167 346.79846191 C382.54453806 346.80444238 380.35696153 346.81124681 378.16938782 346.81881714 C372.21267057 346.83653563 366.25601072 346.84117504 360.29926968 346.84244871 C355.33155749 346.84434426 350.36385879 346.851698 345.39615178 346.8587929 C334.34668528 346.87416523 323.29724566 346.88012883 312.24776921 346.8787822 C311.25267991 346.87866233 311.25267991 346.87866233 310.23748779 346.87854004 C309.57328556 346.87845828 308.90908334 346.87837652 308.22475377 346.87829228 C297.46534081 346.87747974 286.70606797 346.89660693 275.94669554 346.92481677 C264.90185075 346.95354668 253.85707766 346.96699069 242.81219506 346.96562922 C236.61026513 346.96511873 230.4084936 346.97084973 224.20659637 346.99198532 C218.37237679 347.01132351 212.53846739 347.01152227 206.70423698 346.99695206 C204.56204972 346.99485722 202.41984327 346.99960484 200.27768898 347.01167297 C197.35431507 347.02707602 194.43201721 347.01784962 191.50866699 347.00241089 C190.65982681 347.01269801 189.81098663 347.02298514 188.93642402 347.033584 C183.59568274 346.97120771 180.59070958 346.02435803 176.33465576 342.50793457 C174.66473389 340.55505371 174.66473389 340.55505371 173.36590576 338.48059082 C172.8696167 337.69055664 172.37332764 336.90052246 171.86199951 336.08654785 C169.09804218 331.42016081 166.44826232 326.6974125 163.83465576 321.94543457 C159.06321804 313.34014727 154.20123068 304.79986378 149.20965576 296.32043457 C144.21696219 287.82467983 139.41249022 279.24789518 134.72821045 270.57873535 C130.91296878 263.52927255 126.96977813 256.56152871 122.97479248 249.6126709 C119.04543608 242.7716194 115.18054046 235.89621979 111.33465576 229.00793457 C107.0169772 221.2783635 102.67348456 213.56520088 98.27215576 205.88293457 C88.91261512 189.54639462 79.68186064 173.13854841 70.49530029 156.70422363 C66.8095225 150.11874896 63.08899413 143.55453862 59.33465576 137.00793457 C54.37083259 128.35229897 49.48334377 119.6555868 44.61590576 110.94543457 C40.70849167 103.95502782 36.7803846 96.97678006 32.83465576 90.00793457 C24.65116348 75.54749394 16.50940688 61.06327207 8.46746826 46.52355957 C7.8176703 45.34955595 7.16784938 44.17556504 6.51800537 43.00158691 C5.24168846 40.6952231 3.96643861 38.38826842 2.69232178 36.08068848 C-0.08058682 31.07764404 -2.87761276 26.10094277 -5.83331299 21.20324707 C-6.30607666 20.41949707 -6.77884033 19.63574707 -7.26593018 18.82824707 C-8.12463366 17.41819197 -8.99300559 16.01395453 -9.87335205 14.61730957 C-11.98595472 11.16131763 -13.55604324 8.5816742 -12.66534424 4.50793457 C-9.29230244 -0.27414331 -5.4108671 -0.0583643 0 0 Z " fill="#187657" transform="translate(435.66534423828125,163.4920654296875)"/>
<path d="M0 0 C0.78957547 -0.00568326 1.57915093 -0.01136651 2.39265293 -0.01722199 C5.03549491 -0.03012979 7.67680669 -0.00733235 10.31956482 0.0153656 C12.21526918 0.01350161 14.11097246 0.00946513 16.00666809 0.00341797 C21.15338057 -0.00656458 26.29954316 0.01462617 31.44617581 0.04189801 C36.82949348 0.06571195 42.21279993 0.06278294 47.59616089 0.0632019 C56.63573019 0.06783118 65.67508899 0.09148214 74.71458435 0.12767029 C85.17050742 0.16941704 95.62624092 0.18698583 106.08224255 0.19029003 C117.20791863 0.19388784 128.33352634 0.21276 139.45917392 0.23741031 C142.66801974 0.2436429 145.87686035 0.24727671 149.08571053 0.25044441 C154.12459625 0.25633973 159.16334615 0.27263825 164.20217514 0.29704857 C166.05331688 0.30449684 167.90447573 0.30856103 169.7556324 0.30902863 C172.27863517 0.31028392 174.80127829 0.32381022 177.32421875 0.34057617 C178.42805533 0.33695355 178.42805533 0.33695355 179.55419165 0.33325773 C183.20573805 0.37135763 186.07303041 0.45437323 189.09861755 2.61473083 C191.51495068 6.23923052 191.38959178 8.89053897 191.37950134 13.07905579 C191.38544359 13.84579908 191.39138583 14.61254236 191.39750814 15.4025203 C191.41489404 17.97964868 191.41789953 20.55659138 191.42088318 23.1337738 C191.43013862 24.97830097 191.44018782 26.82282429 191.45097351 28.66734314 C191.47723235 33.68386867 191.49011318 38.70034066 191.49899483 43.71692419 C191.50485384 46.8495859 191.51306292 49.98223291 191.52200317 53.11488724 C191.54935435 62.91207782 191.5686877 72.7092349 191.57640696 82.50646102 C191.58537266 93.82405236 191.62048811 105.14116109 191.67840815 116.45860565 C191.72160399 125.20178182 191.74181343 133.94482202 191.74448919 142.6881038 C191.74658779 147.91257205 191.7584551 153.13658672 191.79412842 158.36094284 C191.82702614 163.27440409 191.83143325 168.18706923 191.8138504 173.1006012 C191.81230622 174.90458937 191.82104078 176.70861978 191.84076691 178.51250076 C191.86611521 180.97476691 191.8545123 183.43419361 191.83360291 185.8964386 C191.85777212 186.96877017 191.85777212 186.96877017 191.8824296 188.062765 C191.80406648 192.00469834 191.15820083 193.54584637 188.55361271 196.55702114 C184.95895219 199.10854489 181.38493156 199.31807155 177.08370972 199.25637817 C175.89912323 199.26913645 175.89912323 199.26913645 174.6906057 199.28215247 C172.0532833 199.30437808 169.41737778 199.29099942 166.78001404 199.27757263 C164.88577771 199.2859877 162.99154975 199.29651365 161.09733582 199.30899048 C155.95894097 199.33604395 150.82103154 199.33133688 145.68259692 199.31928992 C141.39305829 199.31216001 137.10360951 199.32065671 132.81407791 199.32919532 C122.69668398 199.34914787 112.57952636 199.34357662 102.46214294 199.32151794 C92.02136751 199.29914114 81.58120995 199.31676892 71.14049286 199.35456723 C62.17641339 199.38578106 53.2125254 199.39372356 44.24839836 199.38261348 C38.89436271 199.37612068 33.54068386 199.37815652 28.18668938 199.40193748 C23.15410791 199.42315303 18.12240038 199.41525939 13.08987427 199.38484383 C11.2423724 199.37850431 9.394803 199.38240639 7.54734993 199.39725494 C5.02607336 199.4158781 2.5076737 199.39758666 -0.01345825 199.36990356 C-0.74575435 199.38397001 -1.47805044 199.39803646 -2.23253733 199.41252917 C-6.223473 199.32413057 -7.80857393 198.69519521 -10.85469532 196.05422783 C-13.35201371 192.52391478 -13.60299246 189.05336033 -13.53630066 184.8276062 C-13.54410061 184.06238319 -13.55190057 183.29716018 -13.55993688 182.50874859 C-13.57982065 179.95430664 -13.56410768 177.40136056 -13.5483551 174.84690857 C-13.55513281 173.01178622 -13.5640368 171.17667067 -13.5749054 169.34156799 C-13.59768548 164.3643037 -13.5888681 159.38755803 -13.57300997 154.41028476 C-13.56034625 149.20091787 -13.57209222 143.99159521 -13.5799408 138.78222656 C-13.58903516 130.03531423 -13.57705414 121.28861306 -13.55323792 112.54173279 C-13.52601861 102.42820019 -13.53484759 92.31517145 -13.56236994 82.20165104 C-13.58505588 73.51782811 -13.58826385 64.8341569 -13.5751766 56.15031391 C-13.56738037 50.96400095 -13.56634546 45.77792488 -13.58285904 40.59162712 C-13.59729729 35.71670425 -13.58729383 30.84243149 -13.55838776 25.96757889 C-13.55177386 24.17813382 -13.55367981 22.38863409 -13.56470108 20.59921074 C-13.57835664 18.15702477 -13.56124346 15.71692466 -13.53630066 13.27487183 C-13.55303107 12.21144622 -13.55303107 12.21144622 -13.57009947 11.12653726 C-13.49838745 7.50951393 -12.93602463 5.6645194 -10.85553646 2.6743927 C-7.17767008 0.11015228 -4.32924022 -0.0778914 0 0 Z " fill="#000000" transform="translate(419.90138244628906,510.38526916503906)"/>
<path d="M0 0 C2.12605709 -0.00965512 4.2511234 -0.04075726 6.37695312 -0.07226562 C31.98221447 -0.26827667 56.42892607 7.38275896 75.13085938 25.25195312 C88.63977667 39.38797684 93.70759981 55.9880113 93.56445312 75.19799805 C92.95419569 94.64842818 85.21542371 110.76780492 71.02539062 124.24023438 C51.99679515 140.6699479 26.79802225 145.89694079 2.27539062 145.67773438 C1.53726135 145.67436066 0.79913208 145.67098694 0.03863525 145.66751099 C-26.37968293 145.49327964 -49.96693849 139.0640669 -69.68945312 120.62304688 C-83.40770123 106.31854885 -88.66170369 88.61409518 -88.51293945 69.21313477 C-87.97547671 51.9696511 -81.24821675 37.06879874 -69.34570312 24.42382812 C-49.67427793 6.30796868 -26.26303304 0.07169163 0 0 Z " fill="#FEFEFE" transform="translate(612.974609375,787.759765625)"/>
<path d="M0 0 C17.221875 -0.04125 34.44375 -0.0825 52.1875 -0.125 C60.31088989 -0.15231201 60.31088989 -0.15231201 68.59838867 -0.18017578 C75.26818848 -0.18920898 75.26818848 -0.18920898 78.40156555 -0.19088745 C80.56600265 -0.19393632 82.7304366 -0.20092363 84.89485168 -0.21115112 C108.19033063 -0.31562034 108.19033063 -0.31562034 119 2 C119.7398967 2.14500946 120.4797934 2.29001892 121.24211121 2.43942261 C134.96364813 5.25156649 146.81421276 12.62971698 155 24 C156.89642998 27.24455527 158.54935618 30.53366757 160 34 C160.36609375 34.87269531 160.7321875 35.74539063 161.109375 36.64453125 C164.86242018 50.78429359 162.45186221 65.23092711 155.4609375 77.7578125 C148.87742859 88.21030295 138.10029787 94.40984596 126.25 97.25 C123.12594819 97.87371612 120.19676019 98.20624259 117 98 C117 98.66 117 99.32 117 100 C118.27875 99.9175 119.5575 99.835 120.875 99.75 C130.02404969 99.75 137.9105265 104.39736858 144.625 110.3125 C152.16693624 118.84679627 154.48138474 128.35758405 154.29296875 139.50390625 C154.28872391 140.4677977 154.28447906 141.43168915 154.28010559 142.42478943 C154.26345681 145.47099015 154.22583111 148.51650288 154.1875 151.5625 C154.1724353 153.64126641 154.15875004 155.72004331 154.14648438 157.79882812 C154.11359864 162.86614616 154.06191324 167.93295687 154 173 C148.39 173 142.78 173 137 173 C136.94392578 169.21982422 136.94392578 169.21982422 136.88671875 165.36328125 C136.84028836 162.87744273 136.7891338 160.39174215 136.73754883 157.90600586 C136.70463379 156.20036454 136.67650214 154.49462303 136.65356445 152.78881836 C136.90638962 133.36768262 136.90638962 133.36768262 128 117 C128 116.34 128 115.68 128 115 C127.319375 114.731875 126.63875 114.46375 125.9375 114.1875 C123.88812855 113.35903069 121.86781151 112.45654953 119.875 111.5 C108.80190398 106.85757584 96.44410155 107.65746286 84.67578125 107.5859375 C82.71851307 107.56719875 80.76125273 107.54762338 78.80400085 107.5272522 C73.68645889 107.47621074 68.56889082 107.4364363 63.45123291 107.39910889 C57.29272154 107.35180481 51.13433689 107.29032834 44.97592926 107.23126221 C35.65067145 107.1433917 26.32543371 107.07338299 17 107 C17 128.78 17 150.56 17 173 C11.39 173 5.78 173 0 173 C0 115.91 0 58.82 0 0 Z " fill="#2E3640" transform="translate(790,774)"/>
<path d="M0 0 C0.84962311 0.00370605 1.69924622 0.00741211 2.57461548 0.01123047 C35.20958897 0.2132975 63.80478788 8.51482465 87.9296875 31.515625 C102.50698833 46.83029902 109.33018466 67.571555 109.125 88.375 C109.13660156 89.54740234 109.14820313 90.71980469 109.16015625 91.92773438 C109.12330938 103.04934673 107.14328746 113.49153618 102.5 123.625 C102.04439697 124.63651123 102.04439697 124.63651123 101.57958984 125.66845703 C98.91170793 131.41286498 95.74429479 136.50980158 91.75 141.4375 C91.10675781 142.25476563 90.46351563 143.07203125 89.80078125 143.9140625 C72.93828226 164.04932008 45.36500522 174.96437852 19.75 177.4375 C13.08910666 177.87894124 6.42324756 177.93144811 -0.25 177.9375 C-1.06681244 177.9418103 -1.88362488 177.94612061 -2.72518921 177.95056152 C-30.48519127 178.01331884 -57.38620687 171.15831322 -79.25 153.4375 C-80.03890625 152.81230469 -80.8278125 152.18710937 -81.640625 151.54296875 C-96.22766928 139.36229062 -105.02915849 120.9803686 -108.25 102.4375 C-109.90757427 75.28071761 -105.52811764 52.33548117 -87.25 31.4375 C-64.24621655 7.61215285 -32.06119454 -0.25238514 0 0 Z M-35.4375 20 C-36.66460693 20.39699097 -36.66460693 20.39699097 -37.91650391 20.80200195 C-59.87628267 28.20952803 -75.39129964 41.35788439 -85.92578125 62.125 C-89.36433752 70.7264623 -90.81046339 78.8138689 -90.75 88.0625 C-90.74355469 89.10575439 -90.73710938 90.14900879 -90.73046875 91.22387695 C-90.30112484 109.61081237 -83.48190878 124.69814066 -70.77734375 138.09765625 C-46.90681194 160.19726762 -16.31386852 162.615783 14.75256348 161.53326416 C37.4547615 160.44484062 58.9133642 150.69434504 74.75 134.4375 C88.77268748 117.36521835 92.81507255 98.07975855 90.75 76.4375 C88.0501076 59.69816712 78.09467808 43.84935396 64.38671875 33.89453125 C47.79423245 22.55683628 29.2646215 16.32249714 9.1015625 16.3046875 C8.40412933 16.30373077 7.70669617 16.30277405 6.98812866 16.30178833 C5.52431141 16.30111317 4.06049105 16.30292069 2.59667969 16.30712891 C0.38729943 16.31247027 -1.82187607 16.30716956 -4.03125 16.30078125 C-14.89871478 16.29305511 -25.03070675 16.63167597 -35.4375 20 Z " fill="#303842" transform="translate(615.25,771.5625)"/>
<path d="M0 0 C45.21 0 90.42 0 137 0 C137 5.61 137 11.22 137 17 C97.4 17 57.8 17 17 17 C17 36.8 17 56.6 17 77 C53.3 77 89.6 77 127 77 C127 82.61 127 88.22 127 94 C90.7 94 54.4 94 17 94 C17 114.46 17 134.92 17 156 C58.25 156 99.5 156 142 156 C142 161.61 142 167.22 142 173 C95.14 173 48.28 173 0 173 C0 115.91 0 58.82 0 0 Z " fill="#313943" transform="translate(308,774)"/>
<path d="M0 0 C20.69168908 -0.08021762 20.69168908 -0.08021762 29.58007812 -0.09765625 C35.62121132 -0.10956529 41.66228331 -0.12358262 47.70336914 -0.15087891 C52.57929463 -0.17277009 57.45515438 -0.18460261 62.33112526 -0.18975449 C64.18204596 -0.19342125 66.03296347 -0.20058061 67.88385582 -0.21146011 C85.56536896 -0.31116319 102.73802118 0.13952218 117.02734375 12.04296875 C123.55357434 18.51750642 127.18293178 25.80155481 127.38110352 35.06420898 C127.34795052 46.9369586 125.21449378 54.8484368 116.7421875 63.66796875 C102.23150698 76.00824834 84.63916608 75.29824857 66.69921875 75.1953125 C64.76723885 75.19157425 62.83525703 75.18873112 60.90327454 75.18673706 C55.86128341 75.1791645 50.81941072 75.15957209 45.77746582 75.1373291 C39.7049428 75.11309946 33.63237979 75.10405928 27.55982208 75.09242249 C18.37313279 75.07314297 9.18670247 75.03477616 0 75 C0 50.25 0 25.5 0 0 Z " fill="#FDFDFD" transform="translate(807,790)"/>
<path d="M0 0 C7.59 0 15.18 0 23 0 C25.67803517 6.69508792 28.26905582 13.37260201 30.6953125 20.15625 C31.21195213 21.59371078 31.21195213 21.59371078 31.73902893 23.06021118 C32.86933537 26.2062179 33.99715214 29.35311113 35.125 32.5 C35.93055665 34.74339462 36.73630578 36.98672014 37.54223633 39.22998047 C39.21102104 43.87538769 40.87898486 48.52108844 42.54638672 53.16699219 C45.53524438 61.49300146 48.53290415 69.81583177 51.53125 78.13842773 C52.97382051 82.14272981 54.41518445 86.14746294 55.85546875 90.15258789 C59.50386963 100.29699906 63.1571693 110.43958696 66.82519245 120.57691956 C68.96952084 126.50350282 71.11061479 132.43124872 73.24974346 138.35971069 C74.56403859 142.00158108 75.88011114 145.64278852 77.20028687 149.28253174 C78.44074559 152.70254222 79.67676508 156.12412423 80.90945625 159.54694176 C81.58734306 161.42544014 82.27005347 163.30219561 82.9528656 165.1789093 C83.55748375 166.86140022 83.55748375 166.86140022 84.17431641 168.57788086 C84.52861725 169.55736191 84.88291809 170.53684296 85.24795532 171.54600525 C86 174 86 174 86 177 C78.41 177 70.82 177 63 177 C53.80193357 151.8052963 44.93276741 126.5052879 36.17001343 101.15620422 C32.83056504 91.5000192 29.46706393 81.85232553 26.09176636 72.20861816 C25.49830186 70.51300531 24.90513206 68.81728927 24.31228638 67.12145996 C23.49410157 64.78122918 22.67507895 62.44129443 21.85546875 60.1015625 C21.6039505 59.38322235 21.35243225 58.6648822 21.09329224 57.92477417 C19.67078489 53.87358771 18.20990709 49.83906664 16.71875 45.8125 C15.33757322 42.04003744 14.20762023 38.29697187 13.3125 34.375 C12.74203832 30.88690415 12.74203832 30.88690415 11 28 C10.7304248 28.95600098 10.46084961 29.91200195 10.18310547 30.89697266 C6.57036814 43.53022349 2.38248003 55.94678525 -1.875 68.375 C-2.62935178 70.5848386 -3.38358148 72.79471886 -4.13769531 75.00463867 C-11.02726661 95.16984594 -18.03246334 115.29422868 -25.08874512 135.40161133 C-26.34316122 138.97850364 -27.59477497 142.55637427 -28.84643555 146.13423157 C-30.06523688 149.61739199 -31.28537806 153.10008178 -32.50598145 156.58261108 C-33.08046513 158.22199579 -33.65460844 159.86149981 -34.22839355 161.50112915 C-35.01291403 163.7421065 -35.79916269 165.98246954 -36.5859375 168.22265625 C-36.81745514 168.88497253 -37.04897278 169.54728882 -37.2875061 170.22967529 C-38.10260086 172.54607327 -38.9005651 174.8011302 -40 177 C-47.59 177 -55.18 177 -63 177 C-60.75008535 166.87538409 -60.75008535 166.87538409 -59.33032227 162.95410156 C-58.85079857 161.61687042 -58.85079857 161.61687042 -58.36158752 160.25262451 C-58.0166777 159.30816467 -57.67176788 158.36370483 -57.31640625 157.390625 C-56.94946152 156.37188293 -56.58251678 155.35314087 -56.20445251 154.30352783 C-54.99548369 150.95051713 -53.77894207 147.60030589 -52.5625 144.25 C-51.70514902 141.87586046 -50.84838852 139.50150762 -49.9921875 137.12695312 C-48.21338688 132.19513392 -46.43205152 127.26424137 -44.64892578 122.33398438 C-40.96738718 112.14875756 -37.31691026 101.95243217 -33.66625977 91.75610352 C-32.49922764 88.49784364 -31.33089629 85.24005266 -30.16210938 81.98242188 C-26.4503121 71.63616901 -22.74395366 61.28803931 -19.05300903 50.93432617 C-17.3110159 46.04860946 -15.56649482 41.16379712 -13.82177734 36.27905273 C-12.99124792 33.95154153 -12.16195566 31.62358845 -11.33398438 29.29516602 C-10.18542858 26.06544027 -9.03260653 22.837266 -7.87890625 19.609375 C-7.544319 18.66491516 -7.20973175 17.72045532 -6.86500549 16.74737549 C-6.38570839 15.41014435 -6.38570839 15.41014435 -5.89672852 14.04589844 C-5.62538589 13.28420349 -5.35404327 12.52250854 -5.07447815 11.73773193 C-3.51719358 7.76982649 -1.73118915 3.8951756 0 0 Z " fill="#2F3741" transform="translate(1058,770)"/>
<path d="M0 0 C7.92 0 15.84 0 24 0 C33.19083362 25.18475162 42.31374754 50.39337665 51.375 75.625 C51.86702347 76.99495488 52.35904821 78.36490931 52.85107422 79.73486328 C55.29259076 86.53304667 57.7335601 93.33142645 60.17431641 100.12988281 C64.08462504 111.02145768 67.99629723 121.91254071 71.91265869 132.80194092 C72.66564671 134.89623006 73.4182258 136.99066628 74.17034912 139.08526611 C75.20759767 141.97387893 76.24603472 144.86206047 77.28515625 147.75 C77.60389709 148.63682465 77.92263794 149.52364929 78.2510376 150.43734741 C79.74297073 154.57391207 81.25649635 158.6999132 82.82373047 162.80859375 C83.24856972 163.92379395 83.24856972 163.92379395 83.68199158 165.06152344 C84.20698035 166.43249857 84.73640869 167.80178588 85.27125549 169.16894531 C86.33990443 171.95319712 87 173.98494448 87 177 C79.41 177 71.82 177 64 177 C59.50063672 165.75159181 59.50063672 165.75159181 57.88793945 161.11865234 C57.52205215 160.07131424 57.15616486 159.02397614 56.77919006 157.94490051 C56.39444016 156.83644272 56.00969025 155.72798492 55.61328125 154.5859375 C55.19876205 153.39816208 54.78424286 152.21038666 54.35716248 150.98661804 C53.23875296 147.78122463 52.12220088 144.57519631 51.0065155 141.36885452 C48.88432628 135.27196394 46.75667186 129.17697745 44.62890625 123.08203125 C44.39122906 122.40095999 44.15355186 121.71988873 43.90867233 121.01817894 C40.68947698 111.79582161 37.44030851 102.58483874 34.15234375 93.38671875 C21.40699003 57.7210973 21.40699003 57.7210973 16.4375 41.75 C16.07301758 40.583479 15.70853516 39.41695801 15.33300781 38.21508789 C14.02653039 33.91200224 13 30.5283927 13 26 C12.34 26 11.68 26 11 26 C10.93554688 27.17304687 10.87109375 28.34609375 10.8046875 29.5546875 C9.99308666 36.69843689 7.44786464 43.36284557 5.125 50.125 C4.5981218 51.68005658 4.0718574 53.23532122 3.54614258 54.79077148 C1.71303228 60.19922425 -0.14303849 65.59969928 -2 71 C-2.72902872 73.12352664 -3.45803176 75.24706209 -4.18701172 77.37060547 C-9.75921424 93.59155052 -15.37186526 109.79838763 -21 126 C-21.37864197 127.09018433 -21.75728394 128.18036865 -22.1473999 129.30358887 C-24.59495921 136.3493794 -27.04606242 143.39392855 -29.5 150.4375 C-29.81337311 151.33759796 -30.12674622 152.23769592 -30.44961548 153.16506958 C-31.32991289 155.69245617 -32.21157427 158.21936225 -33.09375 160.74609375 C-33.47215279 161.83293961 -33.47215279 161.83293961 -33.85820007 162.94174194 C-35.50684556 167.65652489 -37.24524076 172.32064202 -39 177 C-46.92 177 -54.84 177 -63 177 C-58.48324491 163.28419919 -53.78830807 149.65747198 -48.86721802 136.0821228 C-47.30009126 131.75881524 -45.73892239 127.43336228 -44.17726135 123.108078 C-43.35563497 120.83259527 -42.53372336 118.55721551 -41.71153259 116.28193665 C-37.30716671 104.0914406 -32.93361338 91.8899503 -28.5625 79.6875 C-27.78184566 77.50886112 -27.0011653 75.33023158 -26.22045898 73.15161133 C-24.63836787 68.73654148 -23.05644211 64.32141243 -21.47460938 59.90625 C-17.51832073 48.86415407 -13.55952168 37.82295794 -9.6010437 26.78164673 C-7.56337216 21.09795087 -5.52583083 15.41420833 -3.48828125 9.73046875 C-2.33714844 6.51941406 -1.18601563 3.30835938 0 0 Z " fill="#2F3741" transform="translate(172,770)"/>
<path d="M0 0 C4.929375 -0.0825 9.85875 -0.165 14.9375 -0.25 C16.47398193 -0.28641602 18.01046387 -0.32283203 19.59350586 -0.36035156 C27.00552829 -0.42024669 33.65946467 -0.34929283 40 4 C42.97827932 7.1962022 44.22924226 9.70069521 44.5 14 C44.28295459 18.19621129 42.69325767 20.7680908 40 24 C37 26 37 26 34 26 C34 26.66 34 27.32 34 28 C34.763125 28.226875 35.52625 28.45375 36.3125 28.6875 C39.67413835 30.32923035 40.39900023 31.64907025 42 35 C42.29296875 38.11328125 42.29296875 38.11328125 42.1875 41.3125 C42.14689453 42.91544922 42.14689453 42.91544922 42.10546875 44.55078125 C42.07066406 45.35902344 42.03585937 46.16726563 42 47 C40.35 47 38.7 47 37 47 C36.98582031 46.10796875 36.97164062 45.2159375 36.95703125 44.296875 C36.90933594 43.12640625 36.86164063 41.9559375 36.8125 40.75 C36.76029297 39.00976562 36.76029297 39.00976562 36.70703125 37.234375 C35.79779956 33.07501677 34.53523902 32.2729991 31 30 C27.92013103 29.36541756 27.92013103 29.36541756 24.60546875 29.390625 C23.40341797 29.35839844 22.20136719 29.32617188 20.96289062 29.29296875 C19.71701172 29.27878906 18.47113281 29.26460937 17.1875 29.25 C15.92228516 29.22035156 14.65707031 29.19070313 13.35351562 29.16015625 C10.23601904 29.08957142 7.1180058 29.0425086 4 29 C4 34.94 4 40.88 4 47 C2.68 47 1.36 47 0 47 C0 31.49 0 15.98 0 0 Z " fill="#27FF97" transform="translate(217,1026)"/>
<path d="M0 0 C4.95 -0.0825 9.9 -0.165 15 -0.25 C17.31837891 -0.30462402 17.31837891 -0.30462402 19.68359375 -0.36035156 C27.11769889 -0.42030402 32.62358053 -0.2062272 39 4 C39.825 4.515625 40.65 5.03125 41.5 5.5625 C44.02266328 9.66182782 43.59183353 14.320386 43 19 C41.61911903 22.38997389 40.21318513 24.16389421 37 26 C34.25 26.1875 34.25 26.1875 32 26 C32 26.66 32 27.32 32 28 C32.928125 28.0825 33.85625 28.165 34.8125 28.25 C38 29 38 29 39.6875 30.59375 C41.49846545 33.91385332 41.29180316 36.49508624 41.1875 40.25 C41.14689453 42.14492187 41.14689453 42.14492187 41.10546875 44.078125 C41.07066406 45.04234375 41.03585937 46.0065625 41 47 C39.68 47 38.36 47 37 47 C36.98582031 46.19175781 36.97164062 45.38351562 36.95703125 44.55078125 C36.90933594 43.48214844 36.86164062 42.41351562 36.8125 41.3125 C36.76029297 39.72888672 36.76029297 39.72888672 36.70703125 38.11328125 C35.71237498 33.73349645 34.8056923 32.47729027 31 30 C26.3987286 29.24630067 21.84277197 29.20917483 17.1875 29.1875 C15.92228516 29.16236328 14.65707031 29.13722656 13.35351562 29.11132812 C10.23601111 29.05250729 7.11797172 29.02337947 4 29 C4 34.94 4 40.88 4 47 C2.68 47 1.36 47 0 47 C0 31.49 0 15.98 0 0 Z " fill="#26FF96" transform="translate(742,1026)"/>
<path d="M0 0 C2.31 0 4.62 0 7 0 C10.25736595 6.37200738 13.51459533 12.74408457 16.77172852 19.11621094 C17.88042078 21.28517245 18.98914464 23.45411782 20.09790039 25.62304688 C21.68904741 28.73563488 23.28008186 31.84828041 24.87109375 34.9609375 C25.36902939 35.934935 25.86696503 36.9089325 26.37998962 37.91244507 C26.84039139 38.81322784 27.30079315 39.71401062 27.77514648 40.64208984 C28.1815184 41.43706879 28.58789032 42.23204773 29.00657654 43.05111694 C29.67621024 44.36479417 30.3405825 45.68116501 31 47 C28.703125 47.3046875 28.703125 47.3046875 26 47 C24.234375 44.8828125 24.234375 44.8828125 22.75 42.125 C22.24984375 41.22007813 21.7496875 40.31515625 21.234375 39.3828125 C20.48008907 37.92675421 19.73335571 36.46671143 19 35 C8.77 35 -1.46 35 -12 35 C-13.98 38.96 -15.96 42.92 -18 47 C-19.65 47 -21.3 47 -23 47 C-21.42104805 41.63532917 -19.03192777 36.8923694 -16.46484375 31.953125 C-16.02612442 31.10071228 -15.58740509 30.24829956 -15.13539124 29.37005615 C-13.74010542 26.66127986 -12.33891898 23.95560745 -10.9375 21.25 C-9.99114069 19.4155687 -9.04517292 17.58093535 -8.09960938 15.74609375 C-6.02540384 11.72241532 -3.94742687 7.7007106 -1.86607361 3.6807251 C-1.2359768 2.45794275 -0.61517781 1.23035561 0 0 Z " fill="#2DFF99" transform="translate(651,1026)"/>
<path d="M0 0 C12.54 0 25.08 0 38 0 C38 1.65 38 3.3 38 5 C27.11 5 16.22 5 5 5 C5 10.28 5 15.56 5 21 C14.9 21 24.8 21 35 21 C35 22.65 35 24.3 35 26 C25.1 26 15.2 26 5 26 C5 31.28 5 36.56 5 42 C16.22 42 27.44 42 39 42 C39 43.65 39 45.3 39 47 C26.13 47 13.26 47 0 47 C0 31.49 0 15.98 0 0 Z " fill="#32FF9C" transform="translate(531,1026)"/>
<path d="M0 0 C12.54 0 25.08 0 38 0 C38 1.65 38 3.3 38 5 C27.11 5 16.22 5 5 5 C5 10.28 5 15.56 5 21 C14.9 21 24.8 21 35 21 C35 22.65 35 24.3 35 26 C25.1 26 15.2 26 5 26 C5 31.28 5 36.56 5 42 C16.22 42 27.44 42 39 42 C39 43.65 39 45.3 39 47 C26.13 47 13.26 47 0 47 C0 31.49 0 15.98 0 0 Z " fill="#32FF9C" transform="translate(325,1026)"/>
<path d="M0 0 C4.56285508 -0.08089106 9.12427754 -0.14045647 13.6875 -0.1875 C14.98107422 -0.21263672 16.27464844 -0.23777344 17.60742188 -0.26367188 C18.85458984 -0.27333984 20.10175781 -0.28300781 21.38671875 -0.29296875 C22.53358154 -0.3086792 23.68044434 -0.32438965 24.86206055 -0.34057617 C28.35193191 0.03819692 30.19290938 0.93552595 33 3 C35.32402951 6.20937409 35.47570691 9.11506021 35 13 C32.34660293 17.49036428 29.93182802 18.66918927 25 20 C22.02392578 20.22705078 22.02392578 20.22705078 18.9453125 20.1953125 C17.83671875 20.18886719 16.728125 20.18242188 15.5859375 20.17578125 C14.44382813 20.15902344 13.30171875 20.14226562 12.125 20.125 C10.9596875 20.11597656 9.794375 20.10695313 8.59375 20.09765625 C5.72907795 20.07417533 2.86451215 20.038307 0 20 C0 13.4 0 6.8 0 0 Z " fill="#F6FFFB" transform="translate(221,1031)"/>
<path d="M0 0 C4.39620224 -0.0809117 8.79091597 -0.14046573 13.1875 -0.1875 C14.43337891 -0.21263672 15.67925781 -0.23777344 16.96289062 -0.26367188 C18.16494141 -0.27333984 19.36699219 -0.28300781 20.60546875 -0.29296875 C21.71043701 -0.3086792 22.81540527 -0.32438965 23.95385742 -0.34057617 C28.22035022 0.13644214 30.78281088 1.86395682 33.875 4.75 C35.57946691 8.15893382 34.96849323 10.38429194 34 14 C31.45093818 17.36840311 28.95771513 18.68630315 25 20 C22.13745117 20.22705078 22.13745117 20.22705078 19.04296875 20.1953125 C17.93115234 20.18886719 16.81933594 20.18242188 15.67382812 20.17578125 C14.52333984 20.15902344 13.37285156 20.14226562 12.1875 20.125 C11.01767578 20.11597656 9.84785156 20.10695313 8.64257812 20.09765625 C5.76163084 20.07413831 2.88078911 20.03826879 0 20 C0 13.4 0 6.8 0 0 Z " fill="#F8FFFB" transform="translate(746,1031)"/>
<path d="M0 0 C1.25550659 0.00483398 1.25550659 0.00483398 2.53637695 0.00976562 C9.18185635 0.15877029 14.8343694 1.4282837 20.8125 4.4375 C20.8125 6.0875 20.8125 7.7375 20.8125 9.4375 C20.20921875 9.23253906 19.6059375 9.02757812 18.984375 8.81640625 C18.18515625 8.54699219 17.3859375 8.27757812 16.5625 8 C15.77359375 7.73316406 14.9846875 7.46632813 14.171875 7.19140625 C4.98429902 4.25564108 -4.42426305 4.22440531 -13.1875 8.4375 C-14.60327477 9.62174326 -14.60327477 9.62174326 -14.25 13 C-14.229375 14.134375 -14.20875 15.26875 -14.1875 16.4375 C-8.11650022 19.92832488 -1.68934646 21.04616569 5.11328125 22.45507812 C11.64910658 23.89969188 16.0091424 25.6341424 20.8125 30.4375 C21.71963676 35.21190401 21.29111772 38.6298326 18.8125 42.8125 C12.24110668 48.56246915 5.91971437 48.96417132 -2.5546875 48.80859375 C-8.09881852 48.24225779 -13.05314815 46.54390076 -18.1875 44.4375 C-18.1875 42.7875 -18.1875 41.1375 -18.1875 39.4375 C-15.74926089 40.02267739 -13.39461432 40.69239086 -11.00390625 41.4609375 C-7.07300812 42.4667968 -3.73652284 42.7042315 0.3125 42.6875 C2.18421875 42.69523437 2.18421875 42.69523437 4.09375 42.703125 C8.00954225 42.42342555 11.0977333 41.64384176 14.8125 40.4375 C14.915625 39.179375 15.01875 37.92125 15.125 36.625 C15.21201172 35.56345703 15.21201172 35.56345703 15.30078125 34.48046875 C14.98412422 32.23354699 14.98412422 32.23354699 12.77734375 30.80078125 C9.28821447 29.19642536 5.78999679 28.27551873 2.0625 27.4375 C0.63359742 27.09459584 -0.7947943 26.74955564 -2.22265625 26.40234375 C-2.90602051 26.23718262 -3.58938477 26.07202148 -4.29345703 25.90185547 C-16.50004154 22.90921255 -16.50004154 22.90921255 -20.1875 17.4375 C-20.88156316 14.28266746 -20.89832007 11.59033094 -20.1875 8.4375 C-14.93461003 1.33064886 -8.33211575 -0.09922138 0 0 Z " fill="#2EFF9A" transform="translate(446.1875,1025.5625)"/>
<path d="M0 0 C1.32 0 2.64 0 4 0 C4 6.93 4 13.86 4 21 C15.55 21 27.1 21 39 21 C39 14.07 39 7.14 39 0 C40.65 0 42.3 0 44 0 C44 15.51 44 31.02 44 47 C42.35 47 40.7 47 39 47 C39 39.74 39 32.48 39 25 C27.45 25 15.9 25 4 25 C4 32.26 4 39.52 4 47 C2.68 47 1.36 47 0 47 C0 31.49 0 15.98 0 0 Z " fill="#25FF96" transform="translate(962,1026)"/>
<path d="M0 0 C0.8350708 0.00322266 1.6701416 0.00644531 2.53051758 0.00976562 C8.85447571 0.15255475 14.14165624 1.24400642 19.6875 4.4375 C19.6875 6.0875 19.6875 7.7375 19.6875 9.4375 C18.4190625 9.004375 18.4190625 9.004375 17.125 8.5625 C15.990625 8.19125 14.85625 7.82 13.6875 7.4375 C12.6975 7.06625 11.7075 6.695 10.6875 6.3125 C1.69545226 3.86012334 -7.22003188 4.5151607 -15.32421875 9.05078125 C-18.66269443 11.37918766 -20.84567561 13.59483329 -22.3125 17.4375 C-22.99223468 23.77580518 -23.30717842 30.19448458 -19.3125 35.4375 C-11.38046708 42.42760401 -4.52233036 42.96175391 5.69189453 42.59570312 C9.90210388 42.26193561 13.79192212 41.01071414 17.6875 39.4375 C17.6875 41.0875 17.6875 42.7375 17.6875 44.4375 C8.01254941 48.80071301 -1.73286774 50.24148182 -12.0625 46.875 C-18.56778716 44.19579936 -24.35173655 40.34318156 -27.3125 33.75 C-29.28046838 27.12579272 -29.57704169 19.47623672 -26.8125 13.0625 C-21.13164342 3.40705119 -10.58735283 -0.12678199 0 0 Z " fill="#2BFF99" transform="translate(877.3125,1025.5625)"/>
<path d="M0 0 C2.45120456 2.23496107 3.94114592 4.44881063 5.48046875 7.37890625 C5.92197266 8.21744141 6.36347656 9.05597656 6.81835938 9.91992188 C7.27017578 10.79197266 7.72199219 11.66402344 8.1875 12.5625 C8.65091797 13.43841797 9.11433594 14.31433594 9.59179688 15.21679688 C13 21.73705587 13 21.73705587 13 24 C4.75 24 -3.5 24 -12 24 C-10.64123633 20.60309083 -9.31498791 17.55516952 -7.6171875 14.35546875 C-7.17246094 13.51435547 -6.72773437 12.67324219 -6.26953125 11.80664062 C-5.57923828 10.51016602 -5.57923828 10.51016602 -4.875 9.1875 C-4.40707031 8.30384766 -3.93914063 7.42019531 -3.45703125 6.50976562 C-2.30692397 4.33864475 -1.15451854 2.1687774 0 0 Z " fill="#FAFFFC" transform="translate(654,1031)"/>
<path d="M0 0 C0.66 0 1.32 0 2 0 C2 0.66 2 1.32 2 2 C3.1446875 2.3403125 3.1446875 2.3403125 4.3125 2.6875 C7.67413835 4.32923035 8.39900023 5.64907025 10 9 C10.29296875 12.11328125 10.29296875 12.11328125 10.1875 15.3125 C10.16042969 16.38113281 10.13335937 17.44976563 10.10546875 18.55078125 C10.07066406 19.35902344 10.03585937 20.16726563 10 21 C8.35 21 6.7 21 5 21 C4.96132812 19.66195313 4.96132812 19.66195313 4.921875 18.296875 C4.83679688 16.54117187 4.83679688 16.54117187 4.75 14.75 C4.70359375 13.58984375 4.6571875 12.4296875 4.609375 11.234375 C3.89841858 7.4608371 2.72805273 6.55345735 0 4 C0 2.68 0 1.36 0 0 Z " fill="#33FF9C" transform="translate(249,1052)"/>
</svg>
