<?xml version="1.0" encoding="UTF-8"?>
<svg version="1.1" xmlns="http://www.w3.org/2000/svg" width="1254" height="1254">
<path d="M0 0 C413.82 0 827.64 0 1254 0 C1254 413.82 1254 827.64 1254 1254 C840.18 1254 426.36 1254 0 1254 C0 840.18 0 426.36 0 0 Z " fill="#000000" transform="translate(0,0)"/>
<path d="M0 0 C0.82960739 -0.00686325 1.65921478 -0.0137265 2.51396179 -0.02079773 C5.26102744 -0.03912313 8.0075249 -0.03521914 10.75463867 -0.02954102 C12.66412034 -0.03410106 14.57360037 -0.0394061 16.483078 -0.04542542 C20.48878639 -0.05436853 24.49429556 -0.05192092 28.5 -0.04199219 C33.62817125 -0.03051886 38.75565225 -0.05068275 43.8837328 -0.07990932 C47.82920184 -0.09827874 51.77450586 -0.09797707 55.72000694 -0.0922718 C57.61020562 -0.09211858 59.50041549 -0.09816349 61.3905735 -0.11056328 C64.03816235 -0.12548021 66.68448149 -0.11479038 69.33203125 -0.09765625 C70.10990997 -0.10732422 70.8877887 -0.11699219 71.6892395 -0.12695312 C76.90748379 -0.05641728 79.82957625 1.12984546 83.86010742 4.40405273 C88.5561548 9.28353946 91.60573008 14.9370051 94.86010742 20.84155273 C96.02012906 22.91975288 97.18028905 24.9978758 98.34057617 27.07592773 C99.22108643 28.66050781 99.22108643 28.66050781 100.11938477 30.27709961 C102.78235038 35.06072705 105.47675271 39.82640666 108.17260742 44.59155273 C108.70120361 45.52749268 109.2297998 46.46343262 109.77441406 47.42773438 C114.42563405 55.6564964 119.12162914 63.85946763 123.81863403 72.06213379 C129.21202912 81.48440195 134.53814534 90.94294927 139.83007812 100.42260742 C144.6117879 108.98130975 149.46073952 117.50030413 154.33666992 126.00561523 C154.97789795 127.12915405 154.97789795 127.12915405 155.63208008 128.27539062 C156.43085989 129.65999523 157.24243355 131.03732382 158.06860352 132.40576172 C160.61220867 136.65879103 161.44771998 139.40934595 160.86010742 144.40405273 C157.90675822 147.35740193 154.73350683 146.70713335 150.77368164 146.71044922 C149.93767929 146.71877274 149.10167694 146.72709625 148.24034119 146.735672 C145.46511219 146.759846 142.69011819 146.76855529 139.91479492 146.77514648 C137.98625619 146.78411082 136.05771818 146.79323262 134.12918091 146.80250549 C130.07886057 146.81902065 126.0286231 146.82669956 121.97827148 146.82958984 C116.79974846 146.8349606 111.62201036 146.87257556 106.44370842 146.91833401 C102.4561381 146.94815648 98.46875504 146.95531461 94.48108292 146.95631599 C92.57297312 146.96051195 90.66486245 146.97292111 88.75686264 146.99383354 C86.0782998 147.02084121 83.40153214 147.01589391 80.72290039 147.00341797 C79.55048546 147.0256694 79.55048546 147.0256694 78.35438538 147.04837036 C72.44775072 146.97045215 68.4511482 145.10587366 63.86010742 141.40405273 C61.88891602 138.92236328 61.88891602 138.92236328 60.50854492 136.29077148 C59.97479248 135.30262451 59.44104004 134.31447754 58.89111328 133.29638672 C58.34463135 132.2387915 57.79814941 131.18119629 57.23510742 130.09155273 C56.01731718 127.82471117 54.7972048 125.55911581 53.57495117 123.29467773 C52.95990723 122.14418945 52.34486328 120.99370117 51.71118164 119.80834961 C48.86680747 114.57728216 45.83288869 109.46337791 42.79760742 104.34155273 C37.53278727 95.39517356 32.5191237 86.33716894 27.61157227 77.19067383 C23.67479248 69.86618199 19.60646375 62.62907073 15.45825195 55.42260742 C10.84495316 47.40356848 6.32124248 39.33579422 1.82080078 31.25292969 C-0.67817068 26.77040184 -3.18170249 22.2963252 -5.80395508 17.88452148 C-6.18519531 17.23926514 -6.56643555 16.59400879 -6.95922852 15.92919922 C-7.92450149 14.3060494 -8.90264052 12.69056869 -9.88208008 11.07592773 C-11.24387702 8.18316653 -11.65762733 6.55272533 -11.13989258 3.40405273 C-8.55662917 -0.71889484 -4.35675889 -0.02501762 0 0 Z " fill="#97F5D5" transform="translate(59.139892578125,503.595947265625)"/>
<path d="M0 0 C12.58125 -0.04125 25.1625 -0.0825 38.125 -0.125 C42.06969238 -0.14320801 46.01438477 -0.16141602 50.07861328 -0.18017578 C54.96655273 -0.18920898 54.96655273 -0.18920898 57.26852417 -0.19088745 C58.84625381 -0.19392054 60.42397938 -0.20087353 62.00167847 -0.21115112 C79.63473437 -0.32008509 98.76657668 -0.05445946 112.31640625 13 C121.13055373 23.4706346 121.91195641 33.25893104 121.26074219 46.45410156 C120.45151538 54.35542847 116.29288312 60.09495057 110.75 65.5 C104.85560178 70.28919855 98.40576411 72.64752889 91 74 C92.32064453 74.47179687 92.32064453 74.47179687 93.66796875 74.953125 C94.82941406 75.38109375 95.99085938 75.8090625 97.1875 76.25 C98.33605469 76.66765625 99.48460937 77.0853125 100.66796875 77.515625 C105.59820803 79.71198013 108.96587553 82.37184504 111.75 87 C112.15734375 87.66 112.5646875 88.32 112.984375 89 C115.29207172 93.54438739 115.13233313 98.04190166 115.09765625 103.046875 C115.0962413 103.81807678 115.09482635 104.58927856 115.09336853 105.3838501 C115.08778534 107.83927338 115.07523595 110.29460442 115.0625 112.75 C115.05748283 114.41796743 115.0529203 116.08593629 115.04882812 117.75390625 C115.03782141 121.83597287 115.02056836 125.91797081 115 130 C110.71 130 106.42 130 102 130 C101.9906543 129.04222656 101.98130859 128.08445312 101.97167969 127.09765625 C101.93151663 123.51142504 101.86568875 119.92602821 101.79248047 116.34033203 C101.76442213 114.79454343 101.74313294 113.24861539 101.72900391 111.70263672 C101.68343901 98.13633506 101.68343901 98.13633506 94.875 86.6875 C85.85255172 81.39171514 76.09485927 81.53073744 65.9296875 81.48828125 C64.39696849 81.471404 62.86426307 81.45324974 61.33157349 81.43388367 C57.33028409 81.38670757 53.32904979 81.35669008 49.32757568 81.33044434 C44.50896664 81.29518885 39.69056904 81.23826984 34.87213135 81.18505096 C27.58144912 81.10691751 20.29103639 81.05602545 13 81 C13 97.17 13 113.34 13 130 C8.71 130 4.42 130 0 130 C0 87.1 0 44.2 0 0 Z " fill="#F9F9F9" transform="translate(885,527)"/>
<path d="M0 0 C1.10095505 -0.01336143 1.10095505 -0.01336143 2.22415161 -0.0269928 C4.64123453 -0.0482382 7.05563987 -0.02599351 9.47265625 -0.0012207 C11.15747347 -0.00272367 12.84228997 -0.00615503 14.52709961 -0.01142883 C18.05455383 -0.0157575 21.58109297 0.00105542 25.10839844 0.03320312 C29.62483656 0.07298522 34.13955909 0.06368322 38.65605164 0.03896809 C42.13405362 0.02477029 45.61165636 0.03488315 49.08963013 0.0524807 C50.75455776 0.05832156 52.4195264 0.05704133 54.08444214 0.04845619 C56.41398571 0.04044394 58.74103435 0.06475341 61.0703125 0.09765625 C61.75513702 0.08910614 62.43996155 0.08055603 63.14553833 0.07174683 C66.74973174 0.15940534 68.50960334 0.74218458 71.46226501 2.85832214 C74.03759972 6.46394998 74.16287733 8.45184768 74.16625977 12.8581543 C74.17341507 13.55311005 74.18057037 14.2480658 74.1879425 14.96408081 C74.20478988 17.25106448 74.18545353 19.53607661 74.1640625 21.82299805 C74.16489158 23.41813316 74.16735244 25.01326818 74.17137146 26.60839844 C74.17422671 29.94744662 74.15955592 33.285823 74.13208008 36.62475586 C74.09799693 40.89888476 74.10401762 45.17181275 74.12274265 49.44599915 C74.13332525 52.7386674 74.12436356 56.03105754 74.10935783 59.32369995 C74.10418475 60.8993141 74.10464722 62.4749574 74.11090279 64.05056763 C74.1163706 66.25529139 74.09593371 68.45831226 74.06860352 70.6628418 C74.06240494 71.91572998 74.05620636 73.16861816 74.04981995 74.45947266 C73.44202014 78.35786807 72.32550383 80.01582777 69.53515625 82.76049805 C66.06136504 83.91842845 63.33045308 83.90172296 59.66455078 83.92163086 C58.96988708 83.92659576 58.27522339 83.93156067 57.55950928 83.93667603 C55.26231901 83.95127634 52.96519779 83.95809589 50.66796875 83.96362305 C49.06997679 83.96937604 47.47198485 83.97513375 45.87399292 83.980896 C42.52325113 83.99139977 39.17253328 83.99724658 35.82177734 84.00073242 C31.53213909 84.00621737 27.24281821 84.03024785 22.9532795 84.05870438 C19.65212076 84.07734449 16.3510383 84.08253707 13.04983139 84.0840683 C11.468609 84.08709201 9.88738786 84.09511109 8.30621719 84.10825348 C6.09208387 84.12534401 3.87872364 84.12342689 1.66455078 84.11694336 C0.40563019 84.12058899 -0.85329041 84.12423462 -2.15036011 84.12799072 C-5.80322203 83.72298043 -7.63301189 83.0866329 -10.46484375 80.76049805 C-12.67292533 76.89851098 -12.73220756 73.34380834 -12.77124023 68.95410156 C-12.77956375 68.29001282 -12.78788727 67.62592407 -12.79646301 66.94171143 C-12.82045839 64.75754856 -12.82932111 62.57368477 -12.8359375 60.3894043 C-12.8449103 58.86392633 -12.85403227 57.33844924 -12.86329651 55.81297302 C-12.87975952 52.61959702 -12.88748196 49.42632555 -12.89038086 46.23291016 C-12.8957686 42.14940935 -12.93347485 38.06689591 -12.97912502 33.98367405 C-13.00892425 30.83428896 -13.01610499 27.68514116 -13.01710701 24.53562737 C-13.02130202 23.03056238 -13.03370759 21.52549623 -13.05462456 20.02057076 C-13.08160812 17.91174486 -13.07669672 15.80520178 -13.06420898 13.69628906 C-13.06927963 12.49891617 -13.07435028 11.30154327 -13.07957458 10.06788635 C-11.66456206 2.45480495 -7.30890983 -0.14639101 0 0 Z " fill="#FEFEFE" transform="translate(51.46484375,650.239501953125)"/>
<path d="M0 0 C2.17252464 -0.00960126 4.34405838 -0.0406218 6.51635742 -0.07226562 C29.51740413 -0.24709388 50.95415051 5.94614686 67.9909668 21.93164062 C81.71279266 35.81794043 85.69772839 50.44969352 85.63574219 69.44384766 C85.50437761 77.74725667 84.89864344 84.66165415 81.2722168 92.24023438 C80.59545898 93.71363281 80.59545898 93.71363281 79.9050293 95.21679688 C71.49430903 111.41057171 56.45795493 122.82413475 39.2409668 128.36523438 C37.77143555 128.79835938 37.77143555 128.79835938 36.2722168 129.24023438 C35.1481543 129.61148438 34.0240918 129.98273438 32.8659668 130.36523438 C23.32890005 133.24024393 13.94999413 133.63149358 4.0222168 133.67773438 C2.14022583 133.69271973 2.14022583 133.69271973 0.22021484 133.70800781 C-8.1401937 133.63105974 -15.67342733 132.43494706 -23.7277832 130.24023438 C-24.48333496 130.05227295 -25.23888672 129.86431152 -26.01733398 129.6706543 C-43.4466863 125.2801358 -59.74604026 115.11283039 -69.1262207 99.41992188 C-77.86588481 82.06849119 -80.78860501 64.44058318 -74.98168945 45.60351562 C-71.34314248 35.8440485 -66.05242472 28.58937302 -58.7277832 21.24023438 C-58.03942383 20.52867187 -57.35106445 19.81710937 -56.6418457 19.08398438 C-41.70070736 4.64273542 -20.03816109 0.0533107 0 0 Z M-53.5402832 34.61523438 C-62.75436926 47.26287137 -65.58682341 60.80310015 -63.7277832 76.24023438 C-61.5954003 86.34906209 -56.92349036 94.83775403 -49.7277832 102.24023438 C-49.15801758 102.86027344 -48.58825195 103.4803125 -48.0012207 104.11914062 C-33.6409661 118.25798161 -12.32937456 121.62449425 6.91503906 121.54003906 C26.41039601 121.17554696 44.13289587 115.73517354 58.5534668 102.08007812 C68.76302806 91.2800385 72.79860836 78.22293751 72.69384766 63.58544922 C72.24975212 50.44432522 66.12539201 38.69294307 57.2956543 29.11132812 C43.24311316 16.11679685 25.37474323 11.86559401 6.89086914 11.86962891 C4.67213497 11.86528318 2.45544092 11.82894929 0.23706055 11.79101562 C-20.25172919 11.62917392 -40.19094601 18.30257449 -53.5402832 34.61523438 Z " fill="#F9F9F9" transform="translate(749.727783203125,525.759765625)"/>
<path d="M0 0 C33.99 0 67.98 0 103 0 C103 4.29 103 8.58 103 13 C73.3 13 43.6 13 13 13 C13 27.85 13 42.7 13 58 C40.06 58 67.12 58 95 58 C95 61.96 95 65.92 95 70 C67.94 70 40.88 70 13 70 C13 85.84 13 101.68 13 118 C43.69 118 74.38 118 106 118 C106 121.96 106 125.92 106 130 C71.02 130 36.04 130 0 130 C0 87.1 0 44.2 0 0 Z " fill="#FAFAFA" transform="translate(523,527)"/>
<path d="M0 0 C16.35993767 -0.08021762 16.35993767 -0.08021762 23.37695312 -0.09765625 C28.14986666 -0.10957441 32.92270287 -0.12361668 37.69555664 -0.15087891 C41.54701646 -0.17273849 45.39839325 -0.18459606 49.24991035 -0.18975449 C50.71338773 -0.19342684 52.17686099 -0.20059754 53.64030266 -0.21146011 C65.8275343 -0.29825726 78.21153932 0.14419112 87.859375 8.63671875 C93.23749383 14.56063677 95.51686835 20.5340007 95.21484375 28.51953125 C94.55806973 36.10228587 92.39021608 41.46762437 87 47 C79.02978932 53.16092607 71.07223628 55.13210453 61.07666016 55.11352539 C60.4125412 55.11367142 59.74842224 55.11381744 59.06417847 55.1139679 C56.88910551 55.11327634 54.71412032 55.10551973 52.5390625 55.09765625 C51.02306159 55.09578938 49.50706008 55.09436675 47.99105835 55.09336853 C44.01595369 55.08956456 40.04088602 55.07975253 36.0657959 55.06866455 C31.28830225 55.05659836 26.51079618 55.05203809 21.73329163 55.04621124 C14.48883542 55.03653952 7.24446025 55.01736818 0 55 C0 36.85 0 18.7 0 0 Z " fill="#000000" transform="translate(898,540)"/>
<path d="M0 0 C6.27 0 12.54 0 19 0 C21.45887372 6.79147146 23.91732857 13.58309345 26.375 20.375 C26.75248383 21.41819397 27.12996765 22.46138794 27.51889038 23.53619385 C33.84807048 41.02961462 40.1563704 58.53048243 46.44909668 76.03704834 C50.21146493 86.50397229 53.97919325 96.96858988 57.80078125 107.4140625 C58.08945572 108.20384491 58.37813019 108.99362732 58.67555237 109.80734253 C59.99590806 113.41859011 61.31958866 117.0285493 62.6496582 120.63623047 C63.09784912 121.85971191 63.54604004 123.08319336 64.0078125 124.34375 C64.39598145 125.39755859 64.78415039 126.45136719 65.18408203 127.53710938 C66 130 66 130 66 132 C60.06 132 54.12 132 48 132 C47.43716309 130.38665771 46.87432617 128.77331543 46.29443359 127.11108398 C43.89823795 120.24437263 41.49967841 113.37848856 39.10024261 106.51290894 C38.37785952 104.44568301 37.6557427 102.37836421 36.93365479 100.31103516 C32.20441492 86.77378764 27.47508058 73.23726766 22.59375 59.75390625 C22.2689566 58.85594833 21.94416321 57.95799042 21.60952759 57.03282166 C20.14124154 52.97867419 18.66513154 48.92760923 17.17724609 44.88061523 C14.30607565 37.01908756 11.80066198 29.18802648 10 21 C8.37053375 24.02899966 7.32920794 26.99417324 6.3671875 30.29296875 C3.21885644 40.72018318 -0.35933115 51.00467111 -3.875 61.3125 C-4.24561554 62.40073059 -4.61623108 63.48896118 -4.99807739 64.61016846 C-10.25771329 80.05038695 -15.56295512 95.47439749 -20.9375 110.875 C-21.2340448 111.72720123 -21.5305896 112.57940247 -21.83612061 113.45742798 C-22.66771513 115.84506952 -23.50306807 118.23135757 -24.33984375 120.6171875 C-24.5817897 121.3127626 -24.82373566 122.00833771 -25.07301331 122.72499084 C-26.21325471 125.96053352 -27.45989108 128.91978216 -29 132 C-34.61 132 -40.22 132 -46 132 C-44.62304685 125.12314524 -42.62990606 118.7077188 -40.23828125 112.12109375 C-39.85921631 111.06343811 -39.48015137 110.00578247 -39.08959961 108.91607666 C-37.83567788 105.42135737 -36.57410524 101.92945207 -35.3125 98.4375 C-34.43138779 95.98626257 -33.55078233 93.53484293 -32.6706543 91.08325195 C-30.78899556 85.84400452 -28.90355758 80.60613039 -27.015625 75.36914062 C-23.86858662 66.63902147 -20.73065891 57.90563807 -17.59375 49.171875 C-16.53609149 46.22728053 -15.47839449 43.28269989 -14.4206543 40.33813477 C-14.16239459 39.61917306 -13.90413488 38.90021135 -13.63804913 38.15946293 C-11.84448019 33.16692483 -10.04922671 28.17499459 -8.25317383 23.18334961 C-7.77066587 21.84210374 -7.28816251 20.50085622 -6.80566406 19.15960693 C-5.90718685 16.66203783 -5.00827744 14.16462572 -4.10913086 11.66729736 C-3.71258301 10.56496765 -3.31603516 9.46263794 -2.9074707 8.3269043 C-2.56142288 7.36552048 -2.21537506 6.40413666 -1.85884094 5.41362 C-1.21921853 3.61607477 -0.6033478 1.8100434 0 0 Z " fill="#FAFAFA" transform="translate(421,525)"/>
<path d="M0 0 C5.94 0 11.88 0 18 0 C21.33146269 7.85268145 24.42785938 15.7267787 27.265625 23.76953125 C27.65666916 24.86892532 28.04771332 25.9683194 28.4506073 27.10102844 C29.28679018 29.45270973 30.12157008 31.80489027 30.95504761 34.15753174 C32.94222345 39.76628204 34.93793881 45.37199152 36.93369865 50.97769165 C37.38752816 52.25255188 37.84123895 53.52745438 38.29483223 54.80239868 C43.97784513 70.77584299 49.75048792 86.71664458 55.53024292 102.6552887 C56.45996342 105.22061989 57.38805595 107.7865352 58.31591797 110.35253906 C59.39527437 113.336737 60.48298863 116.31763772 61.57861328 119.29589844 C62.04335451 120.56963948 62.50803972 121.84340097 62.97265625 123.1171875 C63.368479 124.19339355 63.76430176 125.26959961 64.17211914 126.37841797 C65 129 65 129 65 132 C59.39 132 53.78 132 48 132 C44.90800646 124.43905453 42.11853266 116.80904717 39.4375 109.09375 C38.78123097 107.2148302 38.12496161 105.33591051 37.46867752 103.45699596 C36.54613202 100.81387465 35.62571088 98.17001581 34.70536804 95.52612686 C32.81614498 90.09944835 30.92436078 84.67366176 29.03188324 79.24811745 C28.56287104 77.90347693 28.0939633 76.55879997 27.62516022 75.21408653 C24.78264778 67.06258674 21.91324036 58.92169933 18.984375 50.80078125 C18.41926376 49.22786712 17.85415923 47.65495059 17.2890625 46.08203125 C16.29942781 43.32941719 15.29786102 40.58157604 14.2890625 37.8359375 C11.99950376 31.46767381 10.37811196 25.76965827 10 19 C9.34 19 8.68 19 8 19 C7.93425781 20.01320313 7.86851563 21.02640625 7.80078125 22.0703125 C6.9257888 28.91820909 4.40871382 35.37186182 2.1875 41.875 C1.67144241 43.40341846 1.15583309 44.93198834 0.640625 46.46069336 C-1.22440243 51.97900471 -3.11113003 57.48981162 -5 63 C-5.39491638 64.15256287 -5.78983276 65.30512573 -6.19671631 66.49261475 C-10.99896455 80.50243353 -15.81855107 94.5062887 -20.65625 108.50390625 C-21.03504807 109.60167892 -21.41384613 110.6994516 -21.80412292 111.83049011 C-24.13914328 118.57781979 -26.54426396 125.29563249 -29 132 C-34.94 132 -40.88 132 -47 132 C-44.94135087 124.96369791 -42.67787365 118.04117289 -40.2265625 111.1328125 C-39.86655151 110.11257996 -39.50654053 109.09234741 -39.13562012 108.04119873 C-37.96796631 104.73489019 -36.79667421 101.42988574 -35.625 98.125 C-34.80968463 95.8204924 -33.99441814 93.5159675 -33.17919922 91.21142578 C-27.0396538 73.87062388 -20.83425235 56.5544058 -14.54980469 39.265625 C-13.1755147 35.48473309 -11.80506221 31.70245978 -10.43539429 27.91989136 C-9.3105337 24.81395552 -8.18447124 21.7084565 -7.05804443 18.60308838 C-6.52440656 17.13164412 -5.99107536 15.6600886 -5.45806885 14.18841553 C-4.72845875 12.17464981 -3.99727465 10.16146293 -3.265625 8.1484375 C-2.85086914 7.00552246 -2.43611328 5.86260742 -2.00878906 4.68505859 C-1 2 -1 2 0 0 Z " fill="#FAFAFA" transform="translate(1085,525)"/>
<path d="M0 0 C2.76457842 0.29887334 4.52188528 0.58310192 6.64500046 2.43437862 C8.76162402 6.4420956 8.40562129 10.33474706 8.36749268 14.79994202 C8.37076152 15.8057969 8.37403036 16.81165178 8.37739825 17.84798712 C8.38469819 21.22831859 8.37050317 24.60822018 8.35644531 27.98852539 C8.35723591 30.4078631 8.3593323 32.82720068 8.36264038 35.24653625 C8.36724862 41.14125605 8.35795609 47.03585805 8.34235242 52.93054993 C8.3248227 59.79244265 8.32339337 66.65431007 8.32273683 73.51622169 C8.32104852 85.75734323 8.30523007 97.9984055 8.28125 110.23950195 C8.25798671 122.12329602 8.24382459 134.00705249 8.24023438 145.89086914 C8.24001161 146.62292295 8.23978884 147.35497676 8.23955932 148.10921402 C8.23911673 149.58390863 8.2386747 151.05860325 8.23823325 152.53329786 C8.23801369 153.26071862 8.23779412 153.98813938 8.2375679 154.73760319 C8.23735192 155.46316343 8.23713593 156.18872368 8.2369134 156.9362706 C8.23321393 168.25418879 8.22185459 179.57210091 8.2094375 190.89001243 C8.20500031 194.994922 8.20156284 199.09983099 8.19881538 203.20474202 C8.19397197 210.32287363 8.18386896 217.44097877 8.16798782 224.55909538 C8.16345659 226.92668266 8.16062422 229.29427386 8.15958023 231.66186523 C8.15784044 234.8836202 8.14997314 238.10530168 8.14044189 241.32704163 C8.14174162 242.74560104 8.14174162 242.74560104 8.1430676 244.19281822 C8.13922645 245.05323989 8.13538531 245.91366155 8.13142776 246.80015659 C8.13018127 247.54413875 8.12893477 248.28812091 8.1276505 249.05464798 C8 251 8 251 7 254 C5.35 254 3.7 254 2 254 C1.67 253.01 1.34 252.02 1 251 C0.34 251 -0.32 251 -1 251 C-1.02279391 219.31291644 -1.04050001 187.6258352 -1.05106533 155.93874536 C-1.05231609 152.20102554 -1.05361041 148.46330573 -1.05493164 144.72558594 C-1.05519395 143.98144748 -1.05545626 143.23730902 -1.05572652 142.47062092 C-1.06008234 130.40866442 -1.06796941 118.34671267 -1.0771528 106.284759 C-1.08649177 93.91563391 -1.09205613 81.5465113 -1.09408849 69.17738283 C-1.09546321 61.53993876 -1.09981106 53.9025081 -1.10791647 46.26506816 C-1.11380838 40.41676907 -1.11445834 34.56847694 -1.11310768 28.72017479 C-1.11338401 26.31507853 -1.11538907 23.90998178 -1.11920547 21.50488853 C-1.12414283 18.23441057 -1.1229981 14.96399114 -1.12025452 11.69351196 C-1.12316736 10.73049152 -1.1260802 9.76747108 -1.12908131 8.7752682 C-1.12709026 7.9039206 -1.12509921 7.03257301 -1.12304783 6.13482094 C-1.12342755 5.37917748 -1.12380727 4.62353402 -1.1241985 3.84499228 C-1 2 -1 2 0 0 Z " fill="#393937" transform="translate(260,493)"/>
<path d="M0 0 C4.16625 -0.0825 8.3325 -0.165 12.625 -0.25 C13.92775879 -0.28641602 15.23051758 -0.32283203 16.57275391 -0.36035156 C27.28882834 -0.46321526 27.28882834 -0.46321526 32 4 C33.72393401 7.44786802 33.50222927 11.22993228 33 15 C31.125 17.5625 31.125 17.5625 29 19 C28.34 19 27.68 19 27 19 C27 19.66 27 20.32 27 21 C27.639375 21.28875 28.27875 21.5775 28.9375 21.875 C31 23 31 23 32 25 C32.06996014 26.70702735 32.08440154 28.41668003 32.0625 30.125 C32.05347656 31.03507813 32.04445313 31.94515625 32.03515625 32.8828125 C32.02355469 33.58148437 32.01195312 34.28015625 32 35 C30.68 35 29.36 35 28 35 C27.96261719 34.30132813 27.92523438 33.60265625 27.88671875 32.8828125 C27.82097656 31.97273437 27.75523437 31.06265625 27.6875 30.125 C27.62949219 29.22007812 27.57148438 28.31515625 27.51171875 27.3828125 C27.2117961 24.63778399 27.2117961 24.63778399 24 23 C21.77868577 22.6349209 21.77868577 22.6349209 19.33203125 22.5859375 C18.43935547 22.54726563 17.54667969 22.50859375 16.62695312 22.46875 C15.69818359 22.4378125 14.76941406 22.406875 13.8125 22.375 C12.87212891 22.33632813 11.93175781 22.29765625 10.96289062 22.2578125 C8.64224934 22.16357326 6.32115159 22.08069877 4 22 C4 26.29 4 30.58 4 35 C2.68 35 1.36 35 0 35 C0 23.45 0 11.9 0 0 Z " fill="#10817D" transform="translate(446,716)"/>
<path d="M0 0 C6.0328125 -0.0928125 6.0328125 -0.0928125 12.1875 -0.1875 C14.07698364 -0.22846802 14.07698364 -0.22846802 16.00463867 -0.27026367 C17.50861206 -0.28150269 17.50861206 -0.28150269 19.04296875 -0.29296875 C20.06414795 -0.3086792 21.08532715 -0.32438965 22.13745117 -0.34057617 C26.26313557 0.15028351 28.86259256 1.90181351 31.8125 4.75 C33.56355678 8.06779179 33.51845997 10.30597275 33 14 C30.45862841 17.15954305 28.85377341 18.71540886 25 20 C26.2065625 20.433125 26.2065625 20.433125 27.4375 20.875 C30 22 30 22 31 24 C31.07033769 25.87379605 31.0843022 27.75001102 31.0625 29.625 C31.05347656 30.62789062 31.04445313 31.63078125 31.03515625 32.6640625 C31.02355469 33.43492187 31.01195312 34.20578125 31 35 C30.01 35 29.02 35 28 35 C27.96261719 34.30132813 27.92523437 33.60265625 27.88671875 32.8828125 C27.82097656 31.97273437 27.75523437 31.06265625 27.6875 30.125 C27.62949219 29.22007812 27.57148437 28.31515625 27.51171875 27.3828125 C27.2117961 24.63778399 27.2117961 24.63778399 24 23 C21.77868577 22.6349209 21.77868577 22.6349209 19.33203125 22.5859375 C18.43935547 22.54726563 17.54667969 22.50859375 16.62695312 22.46875 C15.69818359 22.4378125 14.76941406 22.406875 13.8125 22.375 C12.87212891 22.33632813 11.93175781 22.29765625 10.96289062 22.2578125 C8.64224934 22.16357326 6.32115159 22.08069877 4 22 C4 26.29 4 30.58 4 35 C2.68 35 1.36 35 0 35 C0 23.45 0 11.9 0 0 Z " fill="#108682" transform="translate(840,716)"/>
<path d="M0 0 C0.99 0 1.98 0 3 0 C3 81.51 3 163.02 3 247 C2.34 247 1.68 247 1 247 C-0.13730908 244.72538183 -0.13053124 243.47260167 -0.14145851 240.94605923 C-0.14754965 240.09274531 -0.1536408 239.23943139 -0.15991652 238.36025947 C-0.16157675 237.41737589 -0.16323697 236.47449231 -0.16494751 235.5030365 C-0.17059105 234.50564644 -0.1762346 233.50825638 -0.18204916 232.48064238 C-0.19983868 229.11722684 -0.21048974 225.75382589 -0.22119141 222.39038086 C-0.23240116 219.9877961 -0.24403313 217.58521327 -0.25605774 215.18263245 C-0.28418893 209.32179165 -0.30764448 203.4609432 -0.3288355 197.60007422 C-0.34614541 192.83896606 -0.36537839 188.07786932 -0.38599777 183.31677437 C-0.38892637 182.64014593 -0.39185496 181.96351749 -0.3948723 181.26638516 C-0.40082913 179.89200594 -0.40679034 178.51762673 -0.41275589 177.14324755 C-0.46851104 164.24517702 -0.51816805 151.34708846 -0.5657609 138.44898558 C-0.6067824 127.3705083 -0.6530437 116.29206295 -0.703125 105.21362305 C-0.76122268 92.36135922 -0.81607501 79.50908833 -0.86572587 66.65678889 C-0.87102419 65.28766253 -0.8763268 63.91853619 -0.88163376 62.54940987 C-0.88424359 61.87569765 -0.88685343 61.20198543 -0.88954235 60.50785769 C-0.90820219 55.7493642 -0.92920396 50.9908843 -0.9510994 46.23240471 C-0.98046975 39.83444127 -1.00454925 33.43647141 -1.02499962 27.03847313 C-1.03333943 24.68293838 -1.04341069 22.32740906 -1.05528831 19.9718895 C-1.07115282 16.77124873 -1.08090887 13.57064824 -1.08901978 10.36997986 C-1.09820228 8.9523084 -1.09820228 8.9523084 -1.10757029 7.50599712 C-1.10980284 5.33703616 -1.06083785 3.16810872 -1 1 C-0.67 0.67 -0.34 0.34 0 0 Z " fill="#4F4F4D" transform="translate(262,496)"/>
<path d="M0 0 C2.7638678 0.29879652 4.5218771 0.58356798 6.64542103 2.43311691 C8.76364761 6.44708737 8.40208609 10.34896646 8.36076355 14.82012939 C8.36332682 15.82810097 8.3658901 16.83607255 8.36853105 17.87458873 C8.37348387 21.26193132 8.35695096 24.64883108 8.34057617 28.03613281 C8.33973023 30.46033721 8.34020441 32.88454238 8.34190369 35.30874634 C8.34258748 40.53291376 8.3340624 45.75698051 8.31719017 50.98111725 C8.29281165 58.53433579 8.28499608 66.08749998 8.2812262 73.6407536 C8.2746599 85.89529883 8.25469393 98.14978417 8.22631836 110.40429688 C8.19878238 122.3085907 8.17754655 134.21286826 8.16479492 146.1171875 C8.16361267 147.21781253 8.16361267 147.21781253 8.16240653 148.3406724 C8.15849142 152.02167129 8.1547003 155.7026703 8.15097082 159.38366938 C8.11986937 189.92248913 8.06680578 220.46123626 8 251 C7.67 251 7.34 251 7 251 C6.99668985 249.80085622 6.99337971 248.60171244 6.98996925 247.36623096 C6.91084521 218.86112084 6.82158523 190.35605427 6.71994839 161.85101577 C6.70743045 158.33777054 6.69499753 154.82452501 6.68261719 151.3112793 C6.6789182 150.26220264 6.6789182 150.26220264 6.67514448 149.19193252 C6.63548821 137.88753972 6.60270942 126.58313701 6.57250018 115.27871547 C6.5413176 103.66774523 6.50253402 92.05681859 6.45720994 80.4458949 C6.43200972 73.92910952 6.41020936 67.41235348 6.39665604 60.89553261 C6.38377687 54.75521583 6.36165967 48.61500001 6.33261681 42.47473907 C6.32358668 40.22746819 6.31786153 37.98018106 6.31578636 35.73289299 C6.30372578 24.65073294 6.28361578 13.89316679 4 3 C3.01 3 2.02 3 1 3 C1 84.84 1 166.68 1 251 C0.34 251 -0.32 251 -1 251 C-1.02279391 219.31291644 -1.04050001 187.6258352 -1.05106533 155.93874536 C-1.05231609 152.20102554 -1.05361041 148.46330573 -1.05493164 144.72558594 C-1.05519395 143.98144748 -1.05545626 143.23730902 -1.05572652 142.47062092 C-1.06008234 130.40866442 -1.06796941 118.34671267 -1.0771528 106.284759 C-1.08649177 93.91563391 -1.09205613 81.5465113 -1.09408849 69.17738283 C-1.09546321 61.53993876 -1.09981106 53.9025081 -1.10791647 46.26506816 C-1.11380838 40.41676907 -1.11445834 34.56847694 -1.11310768 28.72017479 C-1.11338401 26.31507853 -1.11538907 23.90998178 -1.11920547 21.50488853 C-1.12414283 18.23441057 -1.1229981 14.96399114 -1.12025452 11.69351196 C-1.12316736 10.73049152 -1.1260802 9.76747108 -1.12908131 8.7752682 C-1.12709026 7.9039206 -1.12509921 7.03257301 -1.12304783 6.13482094 C-1.12342755 5.37917748 -1.12380727 4.62353402 -1.1241985 3.84499228 C-1 2 -1 2 0 0 Z " fill="#232322" transform="translate(260,493)"/>
<path d="M0 0 C1.4540625 0.0309375 1.4540625 0.0309375 2.9375 0.0625 C3.2675 1.3825 3.5975 2.7025 3.9375 4.0625 C4.5975 4.0625 5.2575 4.0625 5.9375 4.0625 C7.08754105 6.3625821 7.06375614 7.64952048 7.06613445 10.20735168 C7.0693589 11.08094928 7.07258335 11.95454687 7.0759055 12.85461712 C7.0743569 13.82016427 7.0728083 14.78571142 7.07121277 15.78051758 C7.07347833 16.80170339 7.07574388 17.82288919 7.07807809 18.87502003 C7.08444104 22.31903506 7.08358726 25.76301097 7.08276367 29.20703125 C7.0857537 31.66710461 7.08915586 34.12717749 7.09294128 36.58724976 C7.10087923 42.58881222 7.10399658 48.59035912 7.10455366 54.59192538 C7.10502827 59.4679114 7.10708022 64.34389416 7.11025429 69.21987915 C7.11906318 83.03231528 7.12367322 96.84474362 7.12292381 110.65718257 C7.12288386 111.40227522 7.1228439 112.14736786 7.12280273 112.91503906 C7.12276185 113.66103713 7.12272097 114.4070352 7.12267885 115.17563927 C7.12227216 127.27304535 7.13184682 139.37042034 7.1459411 151.46781743 C7.16028584 163.87768881 7.16721236 176.287545 7.16634732 188.69742489 C7.16601473 195.66935984 7.16878923 202.64126219 7.17952538 209.6131897 C7.18955166 216.16631325 7.18931458 222.71937948 7.18200874 229.27251053 C7.1809577 231.68405889 7.18335626 234.09561146 7.1893692 236.50715256 C7.19701901 239.7863454 7.19249122 243.06529529 7.18473816 246.34448242 C7.18988172 247.31002957 7.19502529 248.27557673 7.20032471 249.27038288 C7.19572592 250.14398047 7.19112712 251.01757807 7.18638897 251.91764832 C7.18660634 252.67524539 7.18682371 253.43284246 7.18704766 254.21339703 C6.9375 256.0625 6.9375 256.0625 4.9375 258.0625 C1.86016788 258.54839454 0.42800958 258.38286349 -2.1960783 256.66900921 C-5.07816178 252.64410041 -4.60479738 248.81749968 -4.55024719 243.98335266 C-4.55437046 242.94750178 -4.55849372 241.9116509 -4.56274194 240.8444106 C-4.57169443 237.36256004 -4.55198593 233.8814571 -4.5324707 230.3996582 C-4.53297929 227.90811064 -4.53523367 225.41656291 -4.53910828 222.92501831 C-4.54397433 216.85443531 -4.53033992 210.78414607 -4.50838266 204.71362177 C-4.48371132 197.64932436 -4.48077875 190.58506883 -4.47897889 183.52073469 C-4.47510172 170.92124405 -4.45262729 158.32185615 -4.41918945 145.72241211 C-4.38673991 133.48542858 -4.36550635 121.2484993 -4.35766602 109.01147461 C-4.35693778 107.88033423 -4.35693778 107.88033423 -4.35619483 106.72634254 C-4.35426629 103.6955852 -4.35235416 100.66482785 -4.35047873 97.63407047 C-4.3429543 85.98554758 -4.32732539 74.33703363 -4.30998212 62.68852169 C-4.30474069 59.16575756 -4.29980782 55.64299361 -4.2956202 52.12022805 C-4.28596021 44.08746352 -4.27141472 36.05474077 -4.2487812 28.02199936 C-4.2426383 25.58262055 -4.23819954 23.1432368 -4.23553848 20.7038517 C-4.23158204 17.38943424 -4.22148866 14.07509377 -4.20967102 10.76069641 C-4.20985538 9.78192781 -4.21003975 8.80315921 -4.21022969 7.79473096 C-4.20577185 6.91390763 -4.20131401 6.03308429 -4.19672108 5.12556934 C-4.19493251 4.35956341 -4.19314394 3.59355747 -4.19130117 2.80433923 C-3.96096602 -0.31059213 -3.16511407 0.06459416 0 0 Z M-2.0625 2.0625 C-3.21211379 4.36172758 -3.18683248 5.64086866 -3.18554783 8.19732094 C-3.18753888 9.06866853 -3.18952993 9.94001613 -3.19158131 10.8377682 C-3.18866847 11.80078864 -3.18575563 12.76380908 -3.18275452 13.75601196 C-3.18360894 14.77452535 -3.18446337 15.79303874 -3.18534368 16.84241617 C-3.18699925 20.27728586 -3.18147583 23.71210741 -3.17602539 27.14697266 C-3.17574351 29.60043842 -3.17590127 32.05390428 -3.1764679 34.50737 C-3.17669609 39.80083467 -3.17384786 45.09428418 -3.16823006 50.3877449 C-3.16011286 58.04125699 -3.15749961 65.69476312 -3.15624207 73.34827904 C-3.15405189 85.76474149 -3.14739274 98.18119737 -3.13793945 110.59765625 C-3.12876444 122.66113248 -3.12168404 134.72460693 -3.11743164 146.78808594 C-3.11716892 147.53132239 -3.11690619 148.27455884 -3.11663551 149.04031761 C-3.1153305 152.76881007 -3.11406678 156.49730255 -3.11282361 160.22579503 C-3.10245207 191.17136812 -3.0847605 222.11693307 -3.0625 253.0625 C-2.4025 253.0625 -1.7425 253.0625 -1.0625 253.0625 C-0.7325 254.0525 -0.4025 255.0425 -0.0625 256.0625 C1.5875 256.0625 3.2375 256.0625 4.9375 256.0625 C5.85392849 253.31321454 6.06490999 251.69655782 6.07172108 248.86544991 C6.07617892 248.00564494 6.08063676 247.14583998 6.08522969 246.25998032 C6.08504533 245.31495616 6.08486097 244.36993201 6.08467102 243.39627075 C6.08834771 242.39268143 6.0920244 241.3890921 6.0958125 240.35509098 C6.10686689 236.9764683 6.11069612 233.59787635 6.11450195 230.21923828 C6.12076515 227.80329286 6.12741182 225.38734842 6.13441467 222.97140503 C6.15365226 215.71117139 6.16424322 208.45094029 6.17314246 201.19068891 C6.1775257 197.77238741 6.18289233 194.35408747 6.18813133 190.9357872 C6.20514104 179.57449986 6.21963636 168.21321348 6.22688007 156.85191536 C6.22878998 153.90404382 6.23071031 150.95617229 6.23266602 148.00830078 C6.23314976 147.2756176 6.2336335 146.54293443 6.2341319 145.78804873 C6.24243659 133.91256 6.26778203 122.03717186 6.30024669 110.16172709 C6.3332988 97.97216217 6.35132706 85.78264841 6.35452431 73.59303844 C6.35669088 66.74784599 6.36546104 59.90280033 6.39098549 53.05765152 C6.41493124 46.62102063 6.41852983 40.18458247 6.40822411 33.74791336 C6.40772683 31.38276797 6.41410323 29.01760987 6.42778015 26.65250397 C6.4453818 23.42891396 6.43845032 20.20628593 6.42524719 16.98269653 C6.43621644 16.04213382 6.44718568 15.1015711 6.45848733 14.13250649 C6.41723255 9.97370441 6.2533687 7.6160091 4.1570158 3.94248772 C1.91357996 1.63161333 1.91357996 1.63161333 -2.0625 2.0625 Z " fill="#111111" transform="translate(262.0625,490.9375)"/>
<path d="M0 0 C1.65 0 3.3 0 5 0 C11.15344129 11.59277953 17.18888103 23.23167249 23 35 C20.75 35 20.75 35 18 34 C16.68 31.36 15.36 28.72 14 26 C6.41 26 -1.18 26 -9 26 C-11.475 30.455 -11.475 30.455 -14 35 C-15.32 34.67 -16.64 34.34 -18 34 C-16.12678547 30.39490274 -14.25109034 26.79110142 -12.375 23.1875 C-11.85292969 22.18267578 -11.33085938 21.17785156 -10.79296875 20.14257812 C-7.2728738 13.38486497 -3.67355547 6.67552106 0 0 Z " fill="#108682" transform="translate(772,716)"/>
<path d="M0 0 C9.24 0 18.48 0 28 0 C28 0.99 28 1.98 28 3 C20.08 3 12.16 3 4 3 C4 6.96 4 10.92 4 15 C11.26 15 18.52 15 26 15 C26 16.32 26 17.64 26 19 C18.74 19 11.48 19 4 19 C4 23.29 4 27.58 4 32 C12.25 32 20.5 32 29 32 C29 32.99 29 33.98 29 35 C19.43 35 9.86 35 0 35 C0 23.45 0 11.9 0 0 Z " fill="#10837F" transform="translate(682,716)"/>
<path d="M0 0 C3.04221065 -0.08132642 6.0822238 -0.14065374 9.125 -0.1875 C9.9809375 -0.21263672 10.836875 -0.23777344 11.71875 -0.26367188 C16.93865534 -0.32390155 20.45828519 0.11971121 25 3 C26 4 26 4 26.375 7.3125 C26 11 26 11 24.15234375 13.21484375 C19.52899287 15.83302386 15.39976624 15.43202676 10.1875 15.25 C9.20845703 15.23195313 8.22941406 15.21390625 7.22070312 15.1953125 C4.81337997 15.14834034 2.40656257 15.07660146 0 15 C0 10.05 0 5.1 0 0 Z " fill="#000605" transform="translate(843,719)"/>
<path d="M0 0 C3.20975922 -0.1354964 6.41375629 -0.23434038 9.625 -0.3125 C10.98044922 -0.3753418 10.98044922 -0.3753418 12.36328125 -0.43945312 C16.8218639 -0.52081412 20.01724574 -0.51332944 23.60546875 2.328125 C26 5 26 5 26.6875 8.0625 C26 11 26 11 24.1328125 13.16796875 C19.52935021 15.86001839 15.41373813 15.4325147 10.1875 15.25 C9.20845703 15.23195313 8.22941406 15.21390625 7.22070312 15.1953125 C4.81337997 15.14834034 2.40656257 15.07660146 0 15 C0 10.05 0 5.1 0 0 Z " fill="#000404" transform="translate(450,719)"/>
<path d="M0 0 C9.24 0 18.48 0 28 0 C28 0.99 28 1.98 28 3 C19.75 3 11.5 3 3 3 C3 6.96 3 10.92 3 15 C10.59 15 18.18 15 26 15 C26 16.32 26 17.64 26 19 C18.41 19 10.82 19 3 19 C3 23.29 3 27.58 3 32 C11.58 32 20.16 32 29 32 C29 32.99 29 33.98 29 35 C19.43 35 9.86 35 0 35 C0 23.45 0 11.9 0 0 Z " fill="#108783" transform="translate(528,716)"/>
<path d="M0 0 C0.69931641 -0.020625 1.39863281 -0.04125 2.11914062 -0.0625 C6.91056977 -0.09835728 10.08602236 0.80327864 14.1875 3.25 C14.1875 4.24 14.1875 5.23 14.1875 6.25 C13.15625 5.92 12.125 5.59 11.0625 5.25 C4.93758976 3.72426071 -1.55700114 3.53354508 -7.8125 4.25 C-10.19233718 5.63517874 -10.19233718 5.63517874 -11.8125 7.25 C-11.4825 8.9 -11.1525 10.55 -10.8125 12.25 C-5.9340956 13.94840746 -1.07925234 15.44862764 3.9375 16.6875 C11.4453242 18.75136191 11.4453242 18.75136191 14.1875 22.25 C15.13077177 27.65237467 15.13077177 27.65237467 14.1875 30.25 C10.91231427 33.85063794 8.7359192 35.51996784 3.83984375 35.84375 C2.26792732 35.83848836 0.69590224 35.80670197 -0.875 35.75 C-2.05932617 35.75386719 -2.05932617 35.75386719 -3.26757812 35.7578125 C-7.83862303 35.6811814 -11.19181106 35.33887749 -14.8125 32.25 C-14.8125 31.26 -14.8125 30.27 -14.8125 29.25 C-13.74 29.58 -12.6675 29.91 -11.5625 30.25 C-5.25709455 31.81230188 2.17800086 32.84712846 8.05078125 29.73046875 C8.75589844 29.24191406 9.46101562 28.75335937 10.1875 28.25 C9.6925 25.775 9.6925 25.775 9.1875 23.25 C4.12057061 21.47657471 -0.814192 20.01170037 -6.0625 18.875 C-10.91010239 17.6816489 -13.9761806 16.60577623 -16.8125 12.25 C-17.5 9.25 -17.5 9.25 -16.8125 6.25 C-11.43351987 0.87101987 -7.32735781 0.05314493 0 0 Z " fill="#108380" transform="translate(619.8125,715.75)"/>
<path d="M0 0 C0.99 0 1.98 0 3 0 C3 5.28 3 10.56 3 16 C11.58 16 20.16 16 29 16 C29 10.72 29 5.44 29 0 C30.32 0 31.64 0 33 0 C33 11.55 33 23.1 33 35 C31.68 35 30.36 35 29 35 C29 29.72 29 24.44 29 19 C20.42 19 11.84 19 3 19 C3 24.28 3 29.56 3 35 C2.01 35 1.02 35 0 35 C0 23.45 0 11.9 0 0 Z " fill="#108581" transform="translate(1005,716)"/>
<path d="M0 0 C0.75087891 -0.020625 1.50175781 -0.04125 2.27539062 -0.0625 C6.81097899 -0.09441267 9.95189375 0.17775452 13.5625 3.25 C13.5625 4.24 13.5625 5.23 13.5625 6.25 C12.510625 5.92 11.45875 5.59 10.375 5.25 C3.45944917 3.55187542 -5.05585658 2.5253112 -11.5625 5.9375 C-15.13581828 8.81169079 -17.06430166 10.73091121 -17.75 15.359375 C-17.96909155 19.43995516 -17.60955397 21.89265713 -15.8125 25.625 C-12.28386357 29.52507185 -9.72678285 31.06414327 -4.40625 31.49609375 C1.61351122 31.61345148 6.90622154 31.35466175 12.5625 29.25 C12.5625 30.57 12.5625 31.89 12.5625 33.25 C8.1609852 35.42466146 4.0057404 35.6165765 -0.8125 35.625 C-1.90691406 35.66173828 -1.90691406 35.66173828 -3.0234375 35.69921875 C-9.65010485 35.73471875 -13.65018006 33.58532211 -18.75 29.3125 C-22.46997336 24.7658659 -22.88605311 20.41092472 -22.75 14.6796875 C-22.10480561 9.66330115 -19.05035042 6.66522423 -15.4375 3.4375 C-10.52212437 -0.14662806 -5.94888328 0.04064139 0 0 Z " fill="#10837F" transform="translate(942.4375,715.75)"/>
<path d="M0 0 C0.33 0 0.66 0 1 0 C1 81.18 1 162.36 1 246 C-0.32 246 -1.64 246 -3 246 C-2.505 244.02 -2.505 244.02 -2 242 C-2 242.66 -2 243.32 -2 244 C-1.34 244 -0.68 244 0 244 C0 163.48 0 82.96 0 0 Z " fill="#434340" transform="translate(265,499)"/>
<path d="M0 0 C2.44664205 1.22332103 2.74337967 2.11244298 3.9453125 4.52734375 C4.29980469 5.23697266 4.65429688 5.94660156 5.01953125 6.67773438 C5.38433594 7.42345703 5.74914062 8.16917969 6.125 8.9375 C6.68380859 10.0502832 6.68380859 10.0502832 7.25390625 11.18554688 C10 16.73305861 10 16.73305861 10 19 C3.73 19 -2.54 19 -9 19 C-7.30830495 14.77076237 -5.42942486 10.74206614 -3.375 6.6875 C-3.05015625 6.04232422 -2.7253125 5.39714844 -2.390625 4.73242188 C-1.59558044 3.15402459 -0.79804366 1.57688306 0 0 Z " fill="#000707" transform="translate(774,719)"/>
</svg>
